<svg width="44" height="44" viewBox="0 0 44 44" fill="none" xmlns="http://www.w3.org/2000/svg">
<rect width="44" height="44" rx="22" fill="#508478"/>
<path d="M8.31891 8.96306C8.19014 8.96104 8.0623 8.98747 7.94281 9.04082C7.82331 9.09418 7.71455 9.17339 7.62285 9.27385C7.53115 9.37432 7.45833 9.49403 7.40863 9.62603C7.35892 9.75804 7.33333 9.89971 7.33333 10.0428C7.33333 10.1859 7.35892 10.3276 7.40863 10.4596C7.45833 10.5916 7.53115 10.7113 7.62285 10.8117C7.71455 10.9122 7.82331 10.9914 7.94281 11.0448C8.0623 11.0981 8.19014 11.1246 8.31891 11.1225H10.1042C10.5758 11.1225 10.9689 11.4846 11.0583 11.9998L11.2493 13.1133C11.2499 13.1166 11.25 13.1199 11.2506 13.1231L13.3409 25.3152C13.7185 27.5193 15.4591 29.1182 17.4784 29.1182H29.6087C31.628 29.1182 33.3666 27.5193 33.7449 25.3152L35.8352 13.1231C35.8883 12.8079 35.8129 12.4815 35.629 12.2332C35.4443 11.9856 35.1695 11.8424 34.8799 11.8424H13.0093L12.9676 11.5963C12.7064 10.0756 11.4978 8.96306 10.1042 8.96306H8.31891ZM25.1625 16.1613C25.4111 16.1613 25.6597 16.2667 25.8495 16.4776L28.4408 19.3569C28.8198 19.778 28.8198 20.4619 28.4408 20.8838L25.8495 23.7631C25.6597 23.974 25.4112 24.0794 25.1625 24.0794C24.9137 24.0794 24.6652 23.974 24.4754 23.7631C24.0958 23.342 24.0958 22.6573 24.4754 22.2362L25.4079 21.2001H19.9798C19.4434 21.2001 19.0081 20.7171 19.0081 20.1204C19.0081 19.5236 19.4434 19.0406 19.9798 19.0406H25.4079L24.4754 18.0045C24.0958 17.5834 24.0958 16.8987 24.4754 16.4776C24.6652 16.2667 24.9139 16.1613 25.1625 16.1613ZM19.0081 30.5578C18.4926 30.5578 17.9983 30.7853 17.6338 31.1903C17.2694 31.5953 17.0646 32.1446 17.0646 32.7173C17.0646 33.29 17.2694 33.8393 17.6338 34.2443C17.9983 34.6493 18.4926 34.8768 19.0081 34.8768C19.5235 34.8768 20.0179 34.6493 20.3823 34.2443C20.7468 33.8393 20.9516 33.29 20.9516 32.7173C20.9516 32.1446 20.7468 31.5953 20.3823 31.1903C20.0179 30.7853 19.5235 30.5578 19.0081 30.5578ZM28.0777 30.5578C27.5623 30.5578 27.0679 30.7853 26.7034 31.1903C26.339 31.5953 26.1342 32.1446 26.1342 32.7173C26.1342 33.29 26.339 33.8393 26.7034 34.2443C27.0679 34.6493 27.5623 34.8768 28.0777 34.8768C28.5931 34.8768 29.0875 34.6493 29.4519 34.2443C29.8164 33.8393 30.0212 33.29 30.0212 32.7173C30.0212 32.1446 29.8164 31.5953 29.4519 31.1903C29.0875 30.7853 28.5931 30.5578 28.0777 30.5578Z" fill="white"/>
</svg>
