<svg width="29" height="27" viewBox="0 0 29 27" fill="none" xmlns="http://www.w3.org/2000/svg">
<path d="M1.31896 0.963071C1.19019 0.961048 1.06234 0.987481 0.942851 1.04083C0.823358 1.09419 0.714599 1.1734 0.622896 1.27386C0.531193 1.37433 0.458374 1.49404 0.408672 1.62605C0.358969 1.75805 0.333374 1.89972 0.333374 2.04281C0.333374 2.1859 0.358969 2.32757 0.408672 2.45957C0.458374 2.59158 0.531193 2.71129 0.622896 2.81176C0.714599 2.91222 0.823358 2.99143 0.942851 3.04478C1.06234 3.09814 1.19019 3.12457 1.31896 3.12255H3.10428C3.57586 3.12255 3.96896 3.48457 4.05831 3.99984L4.24937 5.11332C4.2499 5.11661 4.25008 5.11987 4.25064 5.12316L6.3409 17.3152C6.71858 19.5193 8.45912 21.1182 10.4784 21.1182H22.6087C24.628 21.1182 26.3667 19.5193 26.745 17.3152L28.8352 5.12316C28.8884 4.80787 28.813 4.48156 28.629 4.23322C28.4444 3.9856 28.1695 3.84237 27.8799 3.84237H6.00939L5.96764 3.59634C5.70648 2.07558 4.49784 0.963071 3.10428 0.963071H1.31896ZM18.1625 8.16133C18.4111 8.16133 18.6598 8.26675 18.8496 8.47766L21.4409 11.357C21.8199 11.7781 21.8199 12.462 21.4409 12.8838L18.8496 15.7631C18.6598 15.974 18.4113 16.0794 18.1625 16.0794C17.9137 16.0794 17.6653 15.974 17.4755 15.7631C17.0958 15.342 17.0958 14.6574 17.4755 14.2363L18.408 13.2001H12.9799C12.4435 13.2001 12.0081 12.7171 12.0081 12.1204C12.0081 11.5236 12.4435 11.0406 12.9799 11.0406H18.408L17.4755 10.0045C17.0958 9.58337 17.0958 8.89875 17.4755 8.47766C17.6653 8.26675 17.9139 8.16133 18.1625 8.16133ZM12.0081 22.5578C11.4927 22.5578 10.9984 22.7854 10.6339 23.1903C10.2694 23.5953 10.0647 24.1446 10.0647 24.7173C10.0647 25.29 10.2694 25.8393 10.6339 26.2443C10.9984 26.6493 11.4927 26.8768 12.0081 26.8768C12.5236 26.8768 13.0179 26.6493 13.3824 26.2443C13.7469 25.8393 13.9516 25.29 13.9516 24.7173C13.9516 24.1446 13.7469 23.5953 13.3824 23.1903C13.0179 22.7854 12.5236 22.5578 12.0081 22.5578ZM21.0777 22.5578C20.5623 22.5578 20.068 22.7854 19.7035 23.1903C19.339 23.5953 19.1343 24.1446 19.1343 24.7173C19.1343 25.29 19.339 25.8393 19.7035 26.2443C20.068 26.6493 20.5623 26.8768 21.0777 26.8768C21.5932 26.8768 22.0875 26.6493 22.452 26.2443C22.8165 25.8393 23.0212 25.29 23.0212 24.7173C23.0212 24.1446 22.8165 23.5953 22.452 23.1903C22.0875 22.7854 21.5932 22.5578 21.0777 22.5578Z" fill="#2D4E46"/>
</svg>
