<svg width="44" height="44" viewBox="0 0 44 44" fill="none" xmlns="http://www.w3.org/2000/svg">
<rect width="44" height="44" rx="10" fill="#508478" fill-opacity="0.5"/>
<path d="M8.31896 8.96307C8.19019 8.96105 8.06234 8.98748 7.94285 9.04083C7.82336 9.09419 7.7146 9.1734 7.6229 9.27386C7.53119 9.37433 7.45837 9.49404 7.40867 9.62605C7.35897 9.75805 7.33337 9.89972 7.33337 10.0428C7.33337 10.1859 7.35897 10.3276 7.40867 10.4596C7.45837 10.5916 7.53119 10.7113 7.6229 10.8118C7.7146 10.9122 7.82336 10.9914 7.94285 11.0448C8.06234 11.0981 8.19019 11.1246 8.31896 11.1225H10.1043C10.5759 11.1225 10.969 11.4846 11.0583 11.9998L11.2494 13.1133C11.2499 13.1166 11.2501 13.1199 11.2506 13.1232L13.3409 25.3152C13.7186 27.5193 15.4591 29.1182 17.4784 29.1182H29.6087C31.628 29.1182 33.3667 27.5193 33.745 25.3152L35.8352 13.1232C35.8884 12.8079 35.813 12.4816 35.629 12.2332C35.4444 11.9856 35.1695 11.8424 34.8799 11.8424H13.0094L12.9676 11.5963C12.7065 10.0756 11.4978 8.96307 10.1043 8.96307H8.31896ZM25.1625 16.1613C25.4111 16.1613 25.6598 16.2667 25.8496 16.4777L28.4409 19.357C28.8199 19.7781 28.8199 20.462 28.4409 20.8838L25.8496 23.7631C25.6598 23.974 25.4113 24.0794 25.1625 24.0794C24.9137 24.0794 24.6653 23.974 24.4755 23.7631C24.0958 23.342 24.0958 22.6574 24.4755 22.2363L25.408 21.2001H19.9799C19.4435 21.2001 19.0081 20.7171 19.0081 20.1204C19.0081 19.5236 19.4435 19.0406 19.9799 19.0406H25.408L24.4755 18.0045C24.0958 17.5834 24.0958 16.8988 24.4755 16.4777C24.6653 16.2667 24.9139 16.1613 25.1625 16.1613ZM19.0081 30.5578C18.4927 30.5578 17.9984 30.7854 17.6339 31.1903C17.2694 31.5953 17.0647 32.1446 17.0647 32.7173C17.0647 33.29 17.2694 33.8393 17.6339 34.2443C17.9984 34.6493 18.4927 34.8768 19.0081 34.8768C19.5236 34.8768 20.0179 34.6493 20.3824 34.2443C20.7469 33.8393 20.9516 33.29 20.9516 32.7173C20.9516 32.1446 20.7469 31.5953 20.3824 31.1903C20.0179 30.7854 19.5236 30.5578 19.0081 30.5578ZM28.0777 30.5578C27.5623 30.5578 27.068 30.7854 26.7035 31.1903C26.339 31.5953 26.1343 32.1446 26.1343 32.7173C26.1343 33.29 26.339 33.8393 26.7035 34.2443C27.068 34.6493 27.5623 34.8768 28.0777 34.8768C28.5932 34.8768 29.0875 34.6493 29.452 34.2443C29.8165 33.8393 30.0212 33.29 30.0212 32.7173C30.0212 32.1446 29.8165 31.5953 29.452 31.1903C29.0875 30.7854 28.5932 30.5578 28.0777 30.5578Z" fill="#2D4E46"/>
</svg>
