<svg width="44" height="44" viewBox="0 0 44 44" fill="none" xmlns="http://www.w3.org/2000/svg">
<rect width="44" height="44" rx="22" fill="#CB85A0"/>
<path d="M19.7257 9.77777C19.8383 10.9557 20.8224 11.8834 22.0293 11.8834C23.2358 11.8834 24.2184 10.9557 24.3309 9.77777H19.7257ZM26.364 10.0234C26.1308 12.2107 24.2762 13.9205 22.0283 13.9205C19.7861 13.9205 17.935 12.219 17.6947 10.0394L14.3148 10.8092C13.1812 11.0674 12.2014 11.7771 11.6014 12.7727L7.62584 19.3701C7.3432 19.8402 7.26054 20.4031 7.39906 20.9337C7.53758 21.4644 7.88373 21.9165 8.35989 22.189L11.5219 23.9972C12.1712 24.368 12.9711 24.3531 13.6067 23.9594L14.3745 23.483V30.6574C14.3745 32.6262 15.9705 34.2222 17.9393 34.2222H26.1889C28.1577 34.2222 29.7538 32.6262 29.7538 30.6574V23.4691L30.4968 23.9246C31.1231 24.3101 31.9095 24.3284 32.5517 23.9714L35.7445 22.2009C36.2283 21.933 36.5816 21.4799 36.7242 20.9457C36.8673 20.4115 36.7871 19.8418 36.5014 19.3682L32.5248 12.7717C31.9244 11.7755 30.9451 11.0674 29.8114 10.8092L26.364 10.0234Z" fill="white"/>
</svg>
