<svg width="25" height="25" viewBox="0 0 25 25" fill="none" xmlns="http://www.w3.org/2000/svg">
<path fill-rule="evenodd" clip-rule="evenodd" d="M20.2872 10.5337V4.29153C20.2872 3.64511 19.7632 3.12116 19.1167 3.12109C16.2574 3.12109 6.3706 3.12109 3.51126 3.12109C2.86484 3.12116 2.34082 3.64511 2.34082 4.29153C2.34082 6.30234 2.34082 11.644 2.34082 13.6548C2.34082 14.3012 2.86484 14.8252 3.51126 14.8252C4.19208 14.8252 5.07179 14.8252 5.07179 14.8252C5.2871 14.8252 5.46196 14.6504 5.46196 14.4351C5.46196 14.2198 5.2871 14.045 5.07179 14.045C5.07179 14.045 4.19208 14.045 3.51126 14.045C3.29581 14.045 3.12109 13.8703 3.12109 13.6548C3.12109 11.644 3.12109 6.30234 3.12109 4.29153C3.12109 4.07608 3.29581 3.90143 3.51126 3.90143C6.3706 3.90143 16.2574 3.90143 19.1167 3.90143C19.3323 3.90143 19.5069 4.07608 19.5069 4.29153C19.5069 6.12109 19.5069 10.5337 19.5069 10.5337C19.5069 10.749 19.6817 10.9239 19.897 10.9239C20.1124 10.9239 20.2872 10.749 20.2872 10.5337Z" fill="black"/>
<path fill-rule="evenodd" clip-rule="evenodd" d="M19.897 5.07178H2.73099C2.51568 5.07178 2.34082 5.24664 2.34082 5.46195C2.34082 5.67725 2.51568 5.85204 2.73099 5.85204H19.897C20.1124 5.85204 20.2872 5.67725 20.2872 5.46195C20.2872 5.24664 20.1124 5.07178 19.897 5.07178Z" fill="black"/>
<path fill-rule="evenodd" clip-rule="evenodd" d="M2.73099 8.97314H19.897C20.1124 8.97314 20.2872 8.79828 20.2872 8.58297C20.2872 8.36766 20.1124 8.19287 19.897 8.19287H2.73099C2.51568 8.19287 2.34082 8.36766 2.34082 8.58297C2.34082 8.79828 2.51568 8.97314 2.73099 8.97314Z" fill="black"/>
<path fill-rule="evenodd" clip-rule="evenodd" d="M22.6279 11.314C22.6279 10.6676 22.1039 10.1436 21.4576 10.1436C18.5981 10.1436 8.71142 10.1436 5.85201 10.1436C5.20566 10.1436 4.68164 10.6676 4.68164 11.314C4.68164 13.3248 4.68164 18.6664 4.68164 20.6773C4.68164 21.3237 5.20566 21.8477 5.85201 21.8477C8.71142 21.8477 18.5981 21.8477 21.4576 21.8477C22.1039 21.8477 22.6279 21.3237 22.6279 20.6773V11.314ZM21.8477 11.314V20.6773C21.8477 20.8928 21.673 21.0674 21.4576 21.0674C18.5981 21.0674 8.71142 21.0674 5.85201 21.0674C5.63656 21.0674 5.46191 20.8928 5.46191 20.6773C5.46191 18.6664 5.46191 13.3248 5.46191 11.314C5.46191 11.0985 5.63656 10.9239 5.85201 10.9239C8.71142 10.9239 18.5981 10.9239 21.4576 10.9239C21.673 10.9239 21.8477 11.0985 21.8477 11.314Z" fill="black"/>
<path fill-rule="evenodd" clip-rule="evenodd" d="M8.77808 17.3229C8.9502 17.2231 9.15013 17.166 9.36326 17.166C10.0093 17.166 10.5337 17.6905 10.5337 18.3365C10.5337 18.9824 10.0093 19.5069 9.36326 19.5069C9.15013 19.5069 8.9502 19.4498 8.77808 19.3501C8.60596 19.4498 8.40603 19.5069 8.1929 19.5069C7.5469 19.5069 7.02246 18.9824 7.02246 18.3365C7.02246 17.6905 7.5469 17.166 8.1929 17.166C8.40603 17.166 8.60596 17.2231 8.77808 17.3229ZM8.48552 18.0787C8.55961 18.1626 8.66614 18.2107 8.77808 18.2107C8.89002 18.2107 8.99655 18.1626 9.07064 18.0787C9.14219 17.9976 9.24676 17.9464 9.36326 17.9464C9.57864 17.9464 9.75343 18.1211 9.75343 18.3365C9.75343 18.5518 9.57864 18.7266 9.36326 18.7266C9.24676 18.7266 9.14219 18.6753 9.07064 18.5942C8.99655 18.5103 8.89002 18.4622 8.77808 18.4622C8.66614 18.4622 8.55961 18.5103 8.48552 18.5942C8.41396 18.6753 8.3094 18.7266 8.1929 18.7266C7.97752 18.7266 7.80273 18.5518 7.80273 18.3365C7.80273 18.1211 7.97752 17.9464 8.1929 17.9464C8.3094 17.9464 8.41396 17.9976 8.48552 18.0787Z" fill="black"/>
<path fill-rule="evenodd" clip-rule="evenodd" d="M9.75343 13.2647C9.75343 13.0492 9.57878 12.8745 9.36326 12.8745H7.41263C7.19711 12.8745 7.02246 13.0492 7.02246 13.2647V14.8252C7.02246 15.0407 7.19711 15.2154 7.41263 15.2154H9.36326C9.57878 15.2154 9.75343 15.0407 9.75343 14.8252V13.2647ZM7.80273 13.6548V14.4351H8.97316V13.6548H7.80273Z" fill="black"/>
<path fill-rule="evenodd" clip-rule="evenodd" d="M13.2647 13.2647C13.2647 13.0492 13.09 12.8745 12.8745 12.8745H10.9239C10.7083 12.8745 10.5337 13.0492 10.5337 13.2647V14.8252C10.5337 15.0407 10.7083 15.2154 10.9239 15.2154H12.8745C13.09 15.2154 13.2647 15.0407 13.2647 14.8252V13.2647ZM11.314 13.6548V14.4351H12.4844V13.6548H11.314Z" fill="black"/>
<path fill-rule="evenodd" clip-rule="evenodd" d="M16.7759 13.2647C16.7759 13.0492 16.6012 12.8745 16.3857 12.8745H14.4351C14.2196 12.8745 14.0449 13.0492 14.0449 13.2647V14.8252C14.0449 15.0407 14.2196 15.2154 14.4351 15.2154H16.3857C16.6012 15.2154 16.7759 15.0407 16.7759 14.8252V13.2647ZM14.8252 13.6548V14.4351H15.9956V13.6548H14.8252Z" fill="black"/>
<path fill-rule="evenodd" clip-rule="evenodd" d="M20.2871 13.2647C20.2871 13.0492 20.1125 12.8745 19.897 12.8745H17.9463C17.7308 12.8745 17.5562 13.0492 17.5562 13.2647V14.8252C17.5562 15.0407 17.7308 15.2154 17.9463 15.2154H19.897C20.1125 15.2154 20.2871 15.0407 20.2871 14.8252V13.2647ZM18.3364 13.6548V14.4351H19.5069V13.6548H18.3364Z" fill="black"/>
</svg>
