<svg width="100" height="64" viewBox="0 0 100 64" fill="none" xmlns="http://www.w3.org/2000/svg">
<g clip-path="url(#clip0_25_352)">
<mask id="mask0_25_352" style="mask-type:luminance" maskUnits="userSpaceOnUse" x="33" y="0" width="13" height="36">
<path d="M33.1685 0.176147H45.9233V35.8514H33.1685V0.176147Z" fill="white"/>
</mask>
<g mask="url(#mask0_25_352)">
<path d="M33.1797 20.1514V15.7168C34.0808 15.6681 34.7609 15.5332 35.2199 15.3103C35.6771 15.0892 36.0724 14.7164 36.4059 14.1918C36.7393 13.6691 36.9679 13.0134 37.0916 12.2246C37.1909 11.6326 37.2414 10.6041 37.2414 9.13898C37.2414 6.74839 37.352 5.08285 37.5749 4.14048C37.7979 3.19811 38.1988 2.43934 38.7796 1.86792C39.3604 1.29463 40.2072 0.84124 41.3201 0.509631C42.0751 0.286684 43.261 0.176147 44.8816 0.176147H45.8633V4.59386C44.4919 4.59386 43.6113 4.67068 43.2217 4.8243C42.832 4.97793 42.5453 5.21212 42.3598 5.52499C42.1744 5.83974 42.0807 6.37931 42.0807 7.1437C42.0807 7.91933 42.0245 9.3919 41.914 11.5595C41.8521 12.7792 41.691 13.7684 41.4325 14.5253C41.172 15.2822 40.8404 15.9079 40.4395 16.4007C40.0386 16.8934 39.4222 17.4049 38.5941 17.9351C39.3248 18.3529 39.9205 18.8437 40.3833 19.4039C40.8479 19.9641 41.202 20.6441 41.4512 21.446C41.6985 22.246 41.8577 23.3176 41.9327 24.6609C42.0189 26.7049 42.062 28.0108 42.062 28.5784C42.062 29.3915 42.1613 29.9573 42.3598 30.2777C42.5566 30.5981 42.8563 30.8416 43.2591 31.0084C43.6601 31.1751 44.5294 31.2575 45.8633 31.2575V35.6921H44.8816C43.2123 35.6921 41.9327 35.5591 41.0428 35.2949C40.1529 35.0308 39.4016 34.5905 38.789 33.9741C38.1763 33.3577 37.766 32.5971 37.5562 31.6922C37.3464 30.7854 37.2414 29.3597 37.2414 27.415C37.2414 25.148 37.1421 23.6755 36.9436 22.9973C36.6719 22.0118 36.2616 21.3074 35.7108 20.8821C35.16 20.4568 34.3169 20.2132 33.1797 20.1514Z" fill="#393536"/>
</g>
<path d="M61.3141 9.37682H58.4102V6.48413H61.3141V9.37682Z" fill="#5271FF"/>
<path d="M60.6284 15.1604H58.4102V12.9515H60.6284V15.1604Z" fill="#5271FF"/>
<mask id="mask1_25_352" style="mask-type:luminance" maskUnits="userSpaceOnUse" x="47" y="7" width="14" height="36">
<path d="M47.3621 7.07434H60.7913V42.6222H47.3621V7.07434Z" fill="white"/>
</mask>
<g mask="url(#mask1_25_352)">
<path d="M52.1846 11.5876V9.37684H54.4028V11.5876H52.1846ZM57.8257 21.9181C57.2692 21.4928 56.8552 20.7883 56.5835 19.8029C56.4337 19.2464 56.3437 18.1804 56.3156 16.6067H54.4028V13.714H56.2725C56.2276 12.5993 56.1283 11.73 55.9803 11.108C55.7629 10.2031 55.3527 9.43867 54.7475 8.81667C54.1405 8.19466 53.393 7.75439 52.5031 7.49585C51.6131 7.2373 50.3335 7.10803 48.6643 7.10803H47.6807V11.5239C49.0783 11.5239 49.9776 11.6063 50.3804 11.773C50.7813 11.9398 51.0605 12.1759 51.2141 12.485C51.3696 12.7922 51.452 13.4086 51.4651 14.3323C51.527 17.2643 51.6244 19.1621 51.7611 20.0239C51.971 21.2811 52.3663 22.3152 52.9489 23.1283C53.3686 23.6941 54.0356 24.273 54.9517 24.8651C54.2454 25.2716 53.6684 25.7419 53.2169 26.2796C52.7653 26.8154 52.4038 27.4674 52.1321 28.2374C51.8604 29.0074 51.6937 30.0322 51.6319 31.3137C51.5326 33.4326 51.4801 34.8677 51.4745 35.619C51.467 36.3702 51.3696 36.9042 51.1766 37.2189C50.9855 37.5318 50.6858 37.7716 50.2773 37.9384C49.8689 38.1051 49.0034 38.1875 47.6807 38.1875V42.624H48.6643C50.283 42.624 51.4708 42.5116 52.2239 42.2905C53.3499 41.957 54.2023 41.5055 54.785 40.9322C55.3658 40.3589 55.7629 39.5983 55.9803 38.6503C56.1957 37.7004 56.3044 36.033 56.3044 33.6424C56.3044 32.1886 56.355 31.1657 56.4524 30.5755C56.5892 29.7868 56.8215 29.131 57.1493 28.6065C57.4753 28.0838 57.8688 27.7109 58.3259 27.4899C58.783 27.2669 59.4631 27.132 60.3661 27.0833V22.6469C59.2289 22.5869 58.3821 22.3433 57.8257 21.9181Z" fill="#5271FF"/>
</g>
<mask id="mask2_25_352" style="mask-type:luminance" maskUnits="userSpaceOnUse" x="64" y="1" width="3" height="4">
<path d="M64.6284 1.31897H66.9815V4.19667H64.6284V1.31897Z" fill="white"/>
</mask>
<g mask="url(#mask2_25_352)">
<path d="M66.9741 3.76017H64.7559V1.54944H66.9741V3.76017Z" fill="#5271FF"/>
</g>
<path d="M55.8529 6.48421H51.7144V2.35876H55.8529V6.48421Z" fill="#5271FF"/>
<path d="M5.99668 63.3856C5.14611 63.3856 4.35737 63.2376 3.62857 62.9435C2.90353 62.6493 2.27591 62.2372 1.74758 61.707C1.223 61.1786 0.812702 60.551 0.518562 59.826C0.222549 59.1028 0.076416 58.3122 0.076416 57.4579C0.076416 56.6092 0.226296 55.8223 0.526056 55.0972C0.825817 54.3685 1.23799 53.7371 1.76257 53.2013C2.29089 52.6673 2.91664 52.2495 3.63607 51.9498C4.35924 51.65 5.14236 51.5001 5.98169 51.5001C6.86598 51.5001 7.68658 51.6706 8.44722 52.0097C9.21161 52.3507 9.87108 52.8397 10.4256 53.4785L8.68703 55.1572C8.35729 54.7731 7.9676 54.4715 7.51796 54.2504C7.07207 54.0312 6.58309 53.9207 6.04914 53.9207C5.55828 53.9207 5.10864 54.0087 4.70022 54.183C4.29554 54.3591 3.93958 54.6026 3.63607 54.9174C3.33631 55.2284 3.10399 55.5993 2.93913 56.034C2.77426 56.4649 2.69182 56.9295 2.69182 57.4279C2.69182 57.9375 2.77613 58.4096 2.94662 58.8442C3.12086 59.2752 3.35879 59.6499 3.65855 59.9683C3.95831 60.2831 4.31802 60.5285 4.73769 60.7028C5.15735 60.8789 5.61636 60.965 6.11658 60.965C6.6599 60.965 7.16012 60.8526 7.61538 60.6278C8.06877 60.3993 8.45659 60.092 8.77696 59.7061L10.5081 61.3547C9.96288 62.0048 9.30528 62.5069 8.53715 62.861C7.77276 63.2095 6.92594 63.3856 5.99668 63.3856Z" fill="#393536"/>
<path d="M20.5229 63.3856C19.6835 63.3856 18.9042 63.232 18.1847 62.9285C17.469 62.6194 16.847 62.1997 16.3187 61.6695C15.7941 61.1355 15.382 60.5079 15.0822 59.7885C14.7824 59.0653 14.6326 58.2822 14.6326 57.4429C14.6326 56.6035 14.7824 55.8223 15.0822 55.0972C15.382 54.3685 15.7941 53.7371 16.3187 53.2013C16.847 52.6673 17.469 52.2495 18.1847 51.9498C18.9042 51.65 19.6835 51.5001 20.5229 51.5001C21.3472 51.5001 22.1191 51.65 22.8385 51.9498C23.5617 52.2495 24.1874 52.6673 24.712 53.2013C25.2403 53.7371 25.6562 54.3685 25.956 55.0972C26.2595 55.8223 26.4131 56.6035 26.4131 57.4429C26.4131 58.2822 26.2595 59.0653 25.956 59.7885C25.6562 60.5079 25.2403 61.1355 24.712 61.6695C24.1874 62.1997 23.5617 62.6194 22.8385 62.9285C22.1191 63.232 21.3472 63.3856 20.5229 63.3856ZM20.5229 60.965C20.9969 60.965 21.4315 60.8789 21.8268 60.7028C22.2259 60.5285 22.5706 60.2831 22.861 59.9683C23.1495 59.6499 23.3781 59.2752 23.5429 58.8442C23.7078 58.4096 23.7902 57.9431 23.7902 57.4429C23.7902 56.9445 23.7078 56.4799 23.5429 56.049C23.3781 55.6143 23.1495 55.2434 22.861 54.9324C22.5706 54.6176 22.2259 54.3703 21.8268 54.1905C21.4315 54.0106 20.9969 53.9207 20.5229 53.9207C20.0432 53.9207 19.603 54.0106 19.2039 54.1905C18.8086 54.3703 18.4658 54.6176 18.1772 54.9324C17.8868 55.2434 17.6601 55.6143 17.4953 56.049C17.3304 56.4799 17.248 56.9445 17.248 57.4429C17.248 57.9431 17.3304 58.4096 17.4953 58.8442C17.6601 59.2752 17.8868 59.6442 18.1772 59.9534C18.4658 60.2644 18.8086 60.5117 19.2039 60.6953C19.603 60.8751 20.0432 60.965 20.5229 60.965Z" fill="#393536"/>
<path d="M31.4634 51.74H35.9748C36.8291 51.74 37.616 51.8861 38.3354 52.1746C39.0548 52.465 39.6787 52.8622 40.2089 53.3662C40.7372 53.872 41.1531 54.4734 41.4529 55.1722C41.7526 55.8673 41.9025 56.6242 41.9025 57.4429C41.9025 58.2579 41.7526 59.0129 41.4529 59.7061C41.1531 60.4012 40.7372 61.0026 40.2089 61.5122C39.6787 62.0218 39.0548 62.4227 38.3354 62.7112C37.616 63.0016 36.8291 63.1459 35.9748 63.1459H31.4634V51.74ZM35.9973 60.8152C36.4712 60.8152 36.9059 60.7309 37.3012 60.5604C37.7003 60.3918 38.0469 60.1558 38.3429 59.856C38.637 59.5525 38.8675 59.1965 39.0323 58.7918C39.1972 58.3834 39.2796 57.9338 39.2796 57.4429C39.2796 56.9539 39.1972 56.5062 39.0323 56.1015C38.8675 55.6931 38.637 55.3371 38.3429 55.0374C38.0469 54.7338 37.7003 54.4959 37.3012 54.3254C36.9059 54.1568 36.4712 54.0706 35.9973 54.0706H33.9514V60.8152H35.9973Z" fill="#393536"/>
<path d="M46.6561 55.3146H48.9343V63.1459H46.6561V55.3146ZM47.7952 54.1081C47.4205 54.1081 47.1001 53.9788 46.836 53.7184C46.5756 53.4542 46.4463 53.1339 46.4463 52.7592C46.4463 52.3957 46.5756 52.0828 46.836 51.8224C47.1001 51.5639 47.4205 51.4327 47.7952 51.4327C48.1699 51.4327 48.4847 51.5639 48.7395 51.8224C48.9943 52.0828 49.1216 52.3957 49.1216 52.7592C49.1216 53.1339 48.9943 53.4542 48.7395 53.7184C48.4847 53.9788 48.1699 54.1081 47.7952 54.1081Z" fill="#393536"/>
<path d="M56.6978 56.3488V63.1459H54.3447V51.5302H55.6412L62.0111 58.5296V51.74H64.3567V63.3482H63.0677L56.6978 56.3488Z" fill="#393536"/>
<path d="M75.1886 63.3706C74.3586 63.3706 73.5924 63.2226 72.8879 62.9285C72.1835 62.6287 71.5709 62.2165 71.0519 61.692C70.5367 61.1636 70.1339 60.5435 69.8454 59.8335C69.5606 59.1253 69.4182 58.3496 69.4182 57.5103C69.4182 56.6466 69.5681 55.8504 69.8679 55.1197C70.1676 54.3853 70.5835 53.7539 71.1194 53.2237C71.6533 52.6898 72.2809 52.2701 73.0003 51.9648C73.7198 51.6556 74.4991 51.5001 75.3385 51.5001C76.2378 51.5001 77.0696 51.6762 77.834 52.0247C78.5984 52.3694 79.2522 52.8547 79.7974 53.4785L78.0663 55.1797C77.701 54.7806 77.2907 54.4715 76.8373 54.2504C76.382 54.0312 75.9005 53.9207 75.3909 53.9207C74.9001 53.9207 74.4504 54.0087 74.042 54.183C73.6373 54.3591 73.2814 54.6064 72.9779 54.9249C72.6781 55.2396 72.4458 55.6143 72.2809 56.049C72.1161 56.4799 72.0336 56.9483 72.0336 57.4579C72.0336 57.9674 72.1161 58.4396 72.2809 58.8742C72.4458 59.3051 72.68 59.6742 72.9854 59.9833C73.2945 60.2887 73.6598 60.5267 74.0795 60.6953C74.4991 60.8658 74.9638 60.9501 75.4734 60.9501C75.908 60.9501 76.3071 60.8939 76.6724 60.7777C77.0415 60.6634 77.3862 60.4761 77.7066 60.2156V58.6644H75.5258V56.626H80.1946V61.2049C79.5895 61.8999 78.8532 62.4339 77.9839 62.8086C77.1183 63.1833 76.1872 63.3706 75.1886 63.3706Z" fill="#393536"/>
<path d="M85.1971 55.3146H87.4753V63.1459H85.1971V55.3146ZM86.3362 54.1081C85.9615 54.1081 85.6412 53.9788 85.377 53.7184C85.1166 53.4542 84.9873 53.1339 84.9873 52.7592C84.9873 52.3957 85.1166 52.0828 85.377 51.8224C85.6412 51.5639 85.9615 51.4327 86.3362 51.4327C86.7109 51.4327 87.0257 51.5639 87.2805 51.8224C87.5353 52.0828 87.6627 52.3957 87.6627 52.7592C87.6627 53.1339 87.5353 53.4542 87.2805 53.7184C87.0257 53.9788 86.7109 54.1081 86.3362 54.1081Z" fill="#5271FF"/>
<path d="M95.9507 63.4531C95.0664 63.4531 94.272 63.2545 93.5676 62.861C92.8632 62.462 92.2955 61.8868 91.8665 61.1374L93.6051 59.6911C94.1933 60.7459 94.9708 61.2723 95.9357 61.2723C96.3647 61.2723 96.7113 61.1674 96.9774 60.9576C97.2472 60.7477 97.382 60.4742 97.382 60.1332C97.382 59.8147 97.2509 59.5393 96.9924 59.3089C96.7319 59.0747 96.2598 58.8105 95.576 58.5145C94.5212 58.0499 93.7512 57.5309 93.2678 56.9558C92.7882 56.3825 92.5484 55.6968 92.5484 54.9024C92.5484 54.404 92.6383 53.9432 92.8182 53.5235C93.0018 53.1038 93.2566 52.7441 93.5826 52.4444C93.9123 52.1446 94.3039 51.9123 94.7591 51.7474C95.2125 51.5826 95.7128 51.5001 96.2579 51.5001C97.7005 51.5001 98.9221 52.1203 99.9225 53.3586L98.2663 54.8574C97.9516 54.434 97.6331 54.123 97.3146 53.9282C96.9998 53.7296 96.6476 53.6284 96.2579 53.6284C95.8832 53.6284 95.5854 53.724 95.3662 53.9132C95.1451 54.0987 95.0364 54.3516 95.0364 54.6701C95.0364 55.0204 95.1826 55.3108 95.4786 55.5394C95.7727 55.7642 96.2149 56.0078 96.805 56.2663C97.8841 56.7459 98.6635 57.278 99.1431 57.8625C99.6265 58.4471 99.8701 59.1365 99.8701 59.9309C99.8701 60.4517 99.7726 60.9276 99.5778 61.3622C99.3867 61.7931 99.1207 62.1641 98.7759 62.4788C98.435 62.7898 98.0228 63.0296 97.5394 63.1983C97.0598 63.3669 96.5296 63.4531 95.9507 63.4531Z" fill="#5271FF"/>
</g>
<defs>
<clipPath id="clip0_25_352">
<rect width="100" height="63.6691" fill="white"/>
</clipPath>
</defs>
</svg>
