<svg width="25" height="25" viewBox="0 0 25 25" fill="none" xmlns="http://www.w3.org/2000/svg">
<path d="M5.70315 1C5.20315 1 4.75589 1.34375 4.65628 1.84375C4.65628 1.84375 1.70706 15.3477 1.15628 18.0469C1.05667 18.5977 1.19339 18.8945 1.34378 19.0938C1.543 19.3438 1.84964 19.5 2.25003 19.5H6.00003L8.95315 5.90625C9.05276 5.40625 9.50589 4.5 10.9063 4.5H19C18.3008 2.19922 16.0528 1 13.9532 1H5.70315ZM11 5.54688L10.2032 5.70312C10.0528 5.80273 9.95706 6.00586 9.90628 6.15625L8.70315 11.75C9.05276 11.5996 9.39651 11.5469 9.7969 11.5469H13.4063C16.6055 11.5469 18.4004 10.2539 19 7.45312C19.0996 6.95312 19.1563 6.55664 19.1563 6.15625L19.0938 5.59375V5.54688H11ZM20.0469 5.65625L20.0938 6C20.1446 6.5 20.0528 6.94727 19.9532 7.54688C19.2539 10.7969 16.9942 12.4531 13.3438 12.4531H9.75003C8.94925 12.4531 8.40042 12.8027 8.25003 13.4531C8.05081 14.3535 6.30081 22.5996 6.25003 22.75C6.19925 23 6.25393 23.3438 6.45315 23.5938C6.60354 23.793 6.84378 24 7.34378 24H11.3438C11.8438 24 12.3067 23.6445 12.4063 23.0938C12.8555 21.1934 13.4492 18.3066 13.5 18.1562C13.5 18.1055 13.5469 18 13.5469 18H16.2032C20.1035 18 23.0508 15.6562 23.75 11.9062C24.25 9.60547 23.6035 8.14453 22.9532 7.34375C22.0528 6.19336 20.3965 5.65625 20.0469 5.65625Z" fill="black"/>
</svg>
