<svg width="49" height="48" viewBox="0 0 49 48" fill="none" xmlns="http://www.w3.org/2000/svg">
<path d="M20.4044 2C18.8314 2 17.5348 3.29654 17.5348 4.86957V6.78261H10.0321C9.97605 6.77514 9.92374 6.76766 9.8677 6.76766C9.82286 6.7714 9.77429 6.77514 9.72945 6.78261H7.9696C7.62585 6.77887 7.30452 6.95822 7.12891 7.25713C6.95703 7.55605 6.95703 7.92221 7.12891 8.22113C7.30452 8.52004 7.62585 8.69939 7.9696 8.69565H8.92612V43.1304C8.92612 44.7035 10.2227 46 11.7957 46H36.6653C38.2383 46 39.5348 44.7035 39.5348 43.1304V8.69565H40.4913C40.8351 8.69939 41.1564 8.52004 41.332 8.22113C41.5039 7.92221 41.5039 7.55605 41.332 7.25713C41.1564 6.95822 40.8351 6.77887 40.4913 6.78261H38.739C38.6343 6.76393 38.5297 6.76393 38.4288 6.78261H30.9261V4.86957C30.9261 3.29654 29.6296 2 28.0566 2H20.4044ZM20.4044 3.91304H28.0566C28.5871 3.91304 29.0131 4.339 29.0131 4.86957V6.78261H19.4479V4.86957C19.4479 4.339 19.8738 3.91304 20.4044 3.91304ZM10.8392 8.69565H18.3307C18.4353 8.71433 18.5399 8.71433 18.6408 8.69565H29.8089C29.9136 8.71433 30.0182 8.71433 30.1191 8.69565H37.6218V43.1304C37.6218 43.661 37.1958 44.087 36.6653 44.087H11.7957C11.2651 44.087 10.8392 43.661 10.8392 43.1304V8.69565ZM17.5236 19.2062C17.135 19.2099 16.7875 19.4453 16.6381 19.804C16.4924 20.1664 16.5783 20.5774 16.8585 20.8502L22.8779 26.8696L16.8585 32.8889C16.6082 33.1281 16.5073 33.4868 16.597 33.8193C16.6829 34.1556 16.9445 34.4171 17.2807 34.5031C17.6133 34.5927 17.972 34.4918 18.2111 34.2415L24.2305 28.2221L30.2498 34.2415C30.489 34.4918 30.8477 34.5927 31.1802 34.5031C31.5165 34.4171 31.778 34.1556 31.864 33.8193C31.9536 33.4868 31.8528 33.1281 31.6024 32.8889L25.5831 26.8696L31.6024 20.8502C31.8864 20.5737 31.9686 20.1552 31.8154 19.7928C31.6622 19.4266 31.3035 19.195 30.9074 19.2062C30.6571 19.2137 30.4217 19.3183 30.2498 19.4976L24.2305 25.517L18.2111 19.4976C18.0318 19.3108 17.7852 19.2099 17.5236 19.2062Z" fill="black"/>
</svg>
