<svg width="511" height="494" viewBox="0 0 511 494" fill="none" xmlns="http://www.w3.org/2000/svg">
<g clip-path="url(#clip0_7_970)">
<g clip-path="url(#clip1_7_970)">
<path d="M44.0015 389.99L12.4717 344.195L0.279785 348.218L31.8095 394.013C70.8788 450.758 126.124 450.554 150.484 442.516L162.676 438.493C138.315 446.531 83.0707 446.735 44.0015 389.99Z" fill="url(#paint0_linear_7_970)"/>
<path d="M124.145 446.629C116.146 446.629 106.797 445.663 96.5874 442.828C84.7455 439.54 73.5278 434.177 63.2473 426.89C51.3994 418.492 40.7446 407.484 31.5791 394.172L0.0490558 348.377C0.0243497 348.342 0.00832456 348.3 0.00225266 348.257C-0.00381925 348.214 0.000229271 348.17 0.0140768 348.129C0.0279243 348.088 0.0511896 348.05 0.0820256 348.02C0.112862 347.989 0.150419 347.966 0.191717 347.952L12.3839 343.929C12.5022 343.891 12.6315 343.934 12.702 344.037L44.2317 389.831C61.4417 414.827 83.2092 431.123 108.929 438.266C135.907 445.758 156.821 440.13 162.589 438.227C162.658 438.207 162.733 438.214 162.797 438.248C162.862 438.282 162.91 438.34 162.933 438.409C162.956 438.478 162.951 438.553 162.919 438.618C162.888 438.683 162.832 438.734 162.764 438.759L162.74 438.767L150.572 442.782C146.951 443.977 137.401 446.629 124.145 446.629ZM0.7218 348.368L32.0398 393.854C49.2495 418.85 71.017 435.146 96.7374 442.289C123.715 449.781 144.629 444.153 150.396 442.25L154.634 440.852C144.84 442.799 128.399 444.253 108.78 438.805C96.9374 435.516 85.72 430.154 75.4392 422.867C63.5914 414.469 52.9366 403.461 43.771 390.149L12.3601 344.527L0.7218 348.368Z" fill="#111111"/>
<path d="M12.4717 344.195L0.279785 348.218L36.415 265.327L48.6069 261.305L12.4717 344.195Z" fill="#B0C3FF"/>
<path d="M0.279863 348.498C0.233405 348.498 0.187672 348.487 0.146795 348.465C0.105918 348.443 0.0711836 348.411 0.0457279 348.372C0.0202722 348.333 0.00489702 348.288 0.000990658 348.242C-0.00291571 348.196 0.00476975 348.149 0.0233531 348.106L36.1585 265.215C36.1904 265.142 36.252 265.086 36.3275 265.061L48.5194 261.039C48.5707 261.022 48.6258 261.02 48.678 261.034C48.7303 261.047 48.7775 261.076 48.814 261.116C48.8884 261.197 48.9077 261.315 48.8638 261.416L12.7286 344.308C12.6967 344.381 12.6351 344.437 12.5596 344.462L0.367418 348.485C0.338326 348.494 0.308955 348.499 0.279863 348.499V348.498ZM36.6215 265.554L0.78617 347.756L12.2656 343.969L48.1007 261.767L36.6215 265.554Z" fill="#111111"/>
<path d="M48.6069 261.305L130.8 245.309L162.33 291.103C205.199 353.368 182.887 417.814 168.865 435.97C149.216 445.953 86.871 452.255 44.0014 389.99L12.4717 344.195L48.6069 261.305Z" fill="white"/>
<path d="M136.522 442.593C129.317 442.591 122.132 441.838 115.083 440.347C102.173 437.611 89.9249 432.474 78.6802 425.08C65.5145 416.423 53.7691 404.671 43.771 390.149L12.2413 344.354C12.2144 344.315 12.1978 344.27 12.1932 344.222C12.1886 344.175 12.1961 344.127 12.215 344.083L48.3507 261.193C48.3688 261.151 48.3967 261.114 48.4321 261.086C48.4675 261.057 48.5093 261.038 48.5538 261.03L130.747 245.034C130.857 245.013 130.968 245.058 131.031 245.15L162.56 290.945C172.557 305.464 179.663 321.089 183.68 337.387C187.111 351.302 188.299 365.672 187.211 380.099C185.331 405.035 176.754 426.214 169.087 436.141C169.061 436.174 169.029 436.201 168.992 436.22C161.813 439.867 150.134 442.593 136.522 442.593H136.522ZM12.7904 344.165L44.2318 389.831C67.5028 423.631 95.6686 435.66 115.199 439.799C137.344 444.493 158.001 441.151 168.682 435.749C176.288 425.866 184.785 404.835 186.653 380.057C188.299 358.21 185.376 325.071 162.099 291.262L130.674 245.619L48.8045 261.551L12.7904 344.165Z" fill="#111111"/>
<path d="M55.9444 271.96L24.2163 344.739L51.8993 384.946C89.5377 439.613 144.276 434.079 161.53 425.315C173.838 409.373 193.429 352.791 155.791 298.124L128.108 257.917L55.9444 271.96Z" fill="#B0C3FF"/>
<path d="M133.13 431.163C126.802 431.162 120.492 430.5 114.301 429.191C102.961 426.788 92.2039 422.276 82.3275 415.782C70.7644 408.179 60.4492 397.858 51.6686 385.105L23.9859 344.897C23.959 344.858 23.9424 344.813 23.9378 344.765C23.9332 344.718 23.9407 344.67 23.9596 344.626L55.6883 271.848C55.7064 271.807 55.7345 271.77 55.7699 271.742C55.8053 271.714 55.8471 271.694 55.8916 271.686L128.055 257.642C128.109 257.632 128.164 257.637 128.214 257.658C128.265 257.678 128.308 257.713 128.339 257.758L156.021 297.965C164.801 310.716 171.041 324.439 174.569 338.752C177.582 350.972 178.625 363.593 177.67 376.263C176.019 398.162 168.486 416.765 161.752 425.486C161.727 425.519 161.694 425.546 161.657 425.565C155.348 428.769 145.088 431.163 133.131 431.163L133.13 431.163ZM24.5353 344.708L52.1296 384.787C88.6505 437.83 142.371 434.684 161.347 425.094C174.854 407.534 192.097 351.349 155.56 298.283L127.981 258.227L56.142 272.208L24.535 344.708L24.5353 344.708Z" fill="#111111"/>
<path d="M90.2717 321.818C82.7938 328.067 81.7803 340.465 88.0068 349.508C92.6173 356.205 99.9022 359.18 106.408 357.742L117.2 373.416C119.698 377.046 124.2 377.966 127.203 375.457C130.205 372.948 130.614 367.924 128.115 364.295L117.323 348.621C120.333 342.106 119.694 333.577 115.084 326.88C108.857 317.837 97.7475 315.57 90.2717 321.818" fill="#3658C1"/>
<path d="M123.31 377.151C123.01 377.151 122.707 377.131 122.402 377.089C120.288 376.799 118.307 375.519 116.969 373.575L106.284 358.055C99.5114 359.463 92.2653 356.187 87.7765 349.667C81.4799 340.522 82.5188 327.932 90.0924 321.603C93.4687 318.782 97.7443 317.559 102.132 318.158C107.244 318.857 112.049 321.979 115.314 326.721C119.802 333.24 120.71 341.807 117.644 348.592L128.345 364.136C130.931 367.891 130.499 373.066 127.382 375.672C126.242 376.631 124.799 377.155 123.31 377.151V377.151ZM106.408 357.462C106.499 357.462 106.585 357.507 106.638 357.584L117.43 373.258C118.679 375.072 120.519 376.266 122.478 376.534C124.139 376.762 125.754 376.303 127.023 375.242C129.925 372.817 130.311 367.978 127.884 364.454L117.093 348.78C117.065 348.74 117.049 348.693 117.044 348.645C117.04 348.596 117.049 348.547 117.069 348.503C120.134 341.871 119.264 333.446 114.853 327.039C111.677 322.426 107.013 319.392 102.056 318.713C97.8277 318.135 93.7048 319.314 90.4507 322.033C83.0931 328.182 82.0998 340.436 88.237 349.35C92.6368 355.741 99.7466 358.927 106.348 357.469C106.367 357.465 106.388 357.462 106.408 357.462Z" fill="#111111"/>
</g>
<g clip-path="url(#clip2_7_970)">
<path d="M314.858 14.7116C319.814 14.1787 324.924 18.0271 326.272 23.3081L431.832 436.734C433.18 442.015 430.256 446.728 425.3 447.261L234.047 467.834C229.079 468.369 223.969 464.521 222.621 459.239L117.061 45.8135C115.713 40.5325 118.636 35.8197 123.604 35.2855L314.858 14.7116ZM248.941 44.4554C252.674 44.0536 254.896 40.4723 253.88 36.4932C252.863 32.5141 248.982 29.5927 245.249 29.9942L197.073 35.1764C193.341 35.5781 191.119 39.1594 192.135 43.1366C193.152 47.1137 197.034 50.0391 200.767 49.6376L248.942 44.4554" fill="white"/>
<path d="M232.833 468.159C228.158 468.007 223.617 464.271 222.349 459.309L116.79 45.8828C116.086 43.1262 116.508 40.3563 117.949 38.2828C118.592 37.3607 119.429 36.5898 120.401 36.0241C121.372 35.4583 122.456 35.1112 123.576 35.007L314.828 14.4334C319.909 13.8868 325.164 17.8371 326.544 23.239L432.103 436.666C432.807 439.424 432.385 442.195 430.944 444.269C430.302 445.19 429.468 445.959 428.498 446.524C427.529 447.089 426.448 447.436 425.331 447.54L234.077 468.114C233.664 468.158 233.248 468.173 232.833 468.159ZM314.859 14.7116L314.888 14.9901L123.634 35.5637C122.595 35.6601 121.589 35.9819 120.686 36.5067C119.784 37.0314 119.007 37.7465 118.41 38.6022C117.062 40.5423 116.67 43.1454 117.333 45.7444L222.892 459.17C224.205 464.313 229.196 468.075 234.017 467.556L425.27 446.982C426.308 446.886 427.312 446.565 428.212 446.04C429.112 445.516 429.888 444.803 430.483 443.948C431.832 442.008 432.224 439.403 431.56 436.803L326.001 23.3774C324.688 18.2345 319.703 14.4719 314.888 14.9901L314.859 14.7116ZM199.85 49.9507C196.29 49.8354 192.83 46.9876 191.865 43.2059C191.329 41.1088 191.656 38.9945 192.76 37.4044C193.249 36.7004 193.886 36.1114 194.626 35.6786C195.366 35.2457 196.192 34.9794 197.045 34.8982L245.221 29.716C249.095 29.2995 253.103 32.309 254.154 36.4253C254.689 38.5225 254.363 40.6374 253.258 42.2271C252.769 42.9312 252.133 43.5203 251.393 43.9532C250.653 44.3861 249.827 44.6524 248.973 44.7336L200.797 49.9158C200.483 49.9494 200.167 49.9611 199.85 49.9507ZM246.156 30.2403C245.863 30.2307 245.571 30.2415 245.279 30.2727L197.104 35.4549C196.33 35.528 195.581 35.7688 194.91 36.1607C194.239 36.5525 193.662 37.0859 193.219 37.7237C192.207 39.1801 191.911 41.1279 192.406 43.0675C193.391 46.9248 197.127 49.746 200.735 49.3587L248.913 44.1769C249.687 44.1038 250.435 43.8629 251.106 43.471C251.777 43.0791 252.354 42.5456 252.798 41.9078C253.81 40.4514 254.106 38.5036 253.611 36.5638C252.704 33.019 249.473 30.3477 246.156 30.2403Z" fill="#111111"/>
<path d="M245.25 29.9945C248.982 29.5927 252.865 32.5175 253.881 36.4949C254.896 40.4723 252.674 44.0536 248.943 44.4554L200.767 49.6376C197.034 50.0391 193.151 47.1143 192.136 43.1369C191.12 39.1595 193.342 35.5782 197.074 35.1767L245.25 29.9945Z" fill="#B0C3FF"/>
<path d="M199.851 49.9507C196.29 49.8354 192.83 46.9877 191.865 43.2062C191.329 41.1091 191.656 38.9948 192.76 37.4047C193.249 36.7006 193.885 36.1116 194.626 35.6787C195.366 35.2459 196.191 34.9796 197.045 34.8985L245.221 29.716C249.095 29.299 253.102 32.3093 254.153 36.4256C254.689 38.5228 254.362 40.6374 253.258 42.2271C252.769 42.9312 252.132 43.5203 251.392 43.9532C250.652 44.3861 249.826 44.6524 248.973 44.7336L200.797 49.9159C200.483 49.9494 200.166 49.9611 199.851 49.9507ZM246.156 30.2403C245.864 30.2307 245.571 30.2415 245.28 30.2727L197.104 35.455C196.33 35.5281 195.582 35.769 194.911 36.1609C194.24 36.5528 193.663 37.0862 193.219 37.724C192.207 39.1804 191.911 41.1282 192.406 43.0678C193.312 46.6128 196.542 49.2837 199.86 49.3915C200.152 49.4011 200.445 49.3903 200.736 49.3591L248.913 44.1769C249.686 44.1038 250.435 43.8629 251.106 43.4711C251.777 43.0792 252.354 42.5458 252.798 41.9081C253.809 40.4514 254.106 38.5039 253.61 36.564C252.704 33.019 249.474 30.3478 246.156 30.2403Z" fill="#111111"/>
<path d="M427.17 454.583L235.903 475.158C227.166 476.098 218.142 469.302 215.761 459.977L110.202 46.5514C108.573 40.1713 110.476 34.2604 114.643 30.862L101.657 41.4524C97.4901 44.8508 95.5871 50.762 97.2161 57.1421L202.776 470.568C205.157 479.892 214.18 486.689 222.918 485.749L414.184 465.174C416.781 464.92 419.246 463.912 421.276 462.275L434.262 451.684C432.232 453.322 429.766 454.33 427.17 454.583Z" fill="url(#paint1_linear_7_970)"/>
<path d="M220.788 486.107C212.641 485.843 204.719 479.311 202.504 470.637L96.9447 57.2106C95.3445 50.9432 97.0825 44.8217 101.48 41.2349L114.466 30.6445C114.494 30.6202 114.527 30.6018 114.563 30.5904C114.598 30.579 114.636 30.5749 114.673 30.5782C114.71 30.5815 114.746 30.5922 114.779 30.6096C114.812 30.6271 114.842 30.651 114.865 30.68C114.889 30.7089 114.906 30.7422 114.917 30.778C114.927 30.8138 114.931 30.8514 114.926 30.8885C114.922 30.9256 114.911 30.9615 114.892 30.994C114.874 31.0266 114.85 31.0551 114.82 31.0781C110.593 34.5261 108.927 40.4278 110.473 46.4812L216.033 459.908C218.187 468.345 225.88 474.7 233.784 474.957C234.481 474.98 235.18 474.954 235.874 474.88L427.14 454.305C429.682 454.053 432.095 453.067 434.085 451.467C434.142 451.42 434.216 451.398 434.29 451.405C434.364 451.413 434.432 451.449 434.479 451.507C434.526 451.565 434.548 451.638 434.541 451.712C434.533 451.786 434.497 451.854 434.439 451.901L421.454 462.491C419.379 464.16 416.864 465.188 414.215 465.452L222.948 486.027C222.231 486.104 221.509 486.13 220.788 486.107ZM111.864 33.4892L101.834 41.6693C97.6074 45.1173 95.9418 51.0188 97.4876 57.0725L203.047 470.498C205.391 479.679 214.292 486.395 222.888 485.47L414.154 464.895C416.696 464.643 419.109 463.657 421.099 462.058L431.15 453.861C429.888 454.381 428.558 454.718 427.2 454.861L235.934 475.436C227.071 476.389 217.9 469.486 215.49 460.046L109.93 46.6207C108.698 41.793 109.446 37.0521 111.864 33.4892Z" fill="#111111"/>
<path d="M312.988 7.38909C321.739 6.44772 330.763 13.2444 333.144 22.5691L438.703 435.995C441.084 445.319 435.92 453.642 427.171 454.582L235.905 475.157C227.168 476.097 218.143 469.301 215.763 459.976L110.202 46.5514C107.821 37.2266 112.985 28.9041 121.734 27.9641L312.988 7.38909ZM431.832 436.734L326.272 23.3083C324.924 18.0273 319.814 14.1786 314.858 14.7116L123.605 35.2855C118.636 35.8197 115.713 40.5322 117.061 45.8137L222.621 459.239C223.969 464.52 229.079 468.369 234.047 467.835L425.301 447.261C430.257 446.728 433.18 442.015 431.832 436.734Z" fill="#B0C3FF"/>
<path d="M233.773 475.516C225.626 475.252 217.704 468.72 215.49 460.046L109.93 46.6207C108.702 41.8122 109.437 36.9827 111.947 33.3704C113.062 31.7704 114.513 30.4328 116.198 29.4507C117.883 28.4687 119.763 27.8659 121.705 27.6845L312.958 7.11084C321.828 6.15626 331.005 13.0601 333.415 22.5L438.974 435.926C440.202 440.734 439.467 445.563 436.957 449.176C435.843 450.775 434.392 452.113 432.707 453.095C431.021 454.077 429.142 454.68 427.2 454.862L235.934 475.437C235.216 475.513 234.494 475.54 233.773 475.516ZM313.018 7.66733L121.765 28.241C119.902 28.4145 118.1 28.992 116.484 29.933C114.868 30.8741 113.477 32.1561 112.407 33.6897C109.99 37.1683 109.285 41.8311 110.473 46.4823L216.032 459.908C218.186 468.345 225.879 474.7 233.783 474.957C234.481 474.98 235.179 474.954 235.873 474.88L427.14 454.305C429.002 454.131 430.804 453.554 432.42 452.613C434.037 451.672 435.428 450.39 436.497 448.856C438.914 445.378 439.62 440.715 438.432 436.064L332.872 22.6382C330.528 13.4577 321.622 6.74194 313.018 7.66733ZM232.833 468.159C228.157 468.007 223.616 464.271 222.349 459.309L116.789 45.8828C116.086 43.1265 116.508 40.3563 117.948 38.2831C118.591 37.3609 119.428 36.59 120.4 36.0242C121.372 35.4584 122.456 35.1112 123.576 35.007L314.828 14.4334C319.909 13.8871 325.164 17.8371 326.543 23.239L432.103 436.666C432.807 439.424 432.384 442.195 430.943 444.269C430.302 445.19 429.467 445.959 428.498 446.524C427.529 447.089 426.448 447.436 425.33 447.54L234.077 468.113C233.664 468.157 233.248 468.173 232.833 468.159ZM316.058 14.9468C315.667 14.9339 315.276 14.9484 314.888 14.9901L123.634 35.5637C122.594 35.6598 121.588 35.9814 120.685 36.5063C119.782 37.0311 119.005 37.7464 118.407 38.6024C117.059 40.5422 116.667 43.1454 117.331 45.7443L222.892 459.17C224.205 464.313 229.196 468.075 234.017 467.556L425.27 446.983C426.308 446.886 427.311 446.565 428.212 446.041C429.112 445.517 429.887 444.803 430.483 443.949C431.831 442.008 432.224 439.403 431.56 436.803L326 23.3774C324.794 18.6513 320.485 15.0902 316.058 14.9468Z" fill="#111111"/>
</g>
<g clip-path="url(#clip3_7_970)">
<path d="M296.332 129.504C288.927 100.519 260.893 79.4045 233.716 82.3415C183.043 89.692 187.229 155.136 225.839 178.497V178.498C263.423 202.583 307.473 176.297 296.332 129.504Z" fill="#B0C3FF"/>
<path d="M255.269 187.874C255.202 187.874 255.136 187.874 255.069 187.873C245.114 187.832 234.955 184.672 225.689 178.734L225.677 178.726C215.121 172.334 206.458 162.257 201.278 150.347C196.282 138.858 194.768 126.423 197.015 115.333C198.749 106.781 202.718 99.2979 208.495 93.6944C214.911 87.4704 223.384 83.5575 233.676 82.0645C260.95 79.1141 289.177 100.367 296.603 129.434L296.604 129.439C301.612 150.472 295.68 169.365 280.736 179.978C273.458 185.145 264.656 187.874 255.269 187.874V187.874ZM226.008 178.274C244.224 189.939 265.068 190.417 280.412 179.521C295.162 169.046 301.012 150.372 296.06 129.57C288.701 100.765 260.746 79.7039 233.746 82.6196C214.415 85.424 201.223 97.3888 197.563 115.445C192.868 138.61 205.087 165.614 225.984 178.258C225.993 178.263 226.001 178.268 226.008 178.274Z" fill="#111111"/>
<path d="M239.867 106.416C231.918 107.275 227.231 114.843 229.397 123.319C231.563 131.796 239.761 137.971 247.71 137.112C255.658 136.253 260.345 128.686 258.179 120.209C256.013 111.732 247.815 105.557 239.867 106.416" fill="white"/>
<path d="M246.231 137.471C238.655 137.472 231.185 131.446 229.126 123.388C228.007 119.01 228.675 114.612 230.957 111.321C232.999 108.377 236.153 106.536 239.837 106.138C247.905 105.261 256.255 111.547 258.45 120.139C259.569 124.518 258.901 128.917 256.619 132.207C254.577 135.151 251.424 136.992 247.74 137.39C247.239 137.444 246.735 137.471 246.231 137.471H246.231ZM241.352 106.616C240.867 106.616 240.382 106.642 239.897 106.694C236.377 107.074 233.365 108.831 231.417 111.64C229.227 114.797 228.59 119.029 229.668 123.25C231.797 131.583 239.876 137.675 247.68 136.834C251.2 136.454 254.211 134.697 256.159 131.888C258.349 128.731 258.986 124.499 257.908 120.278C255.911 112.462 248.679 106.616 241.352 106.616Z" fill="#111111"/>
<path d="M250.087 146.418C234.165 148.138 224.13 161.978 225.839 178.498C245.83 191.67 273.981 191.301 288.97 171.676C282.373 155.684 266.008 144.697 250.087 146.418Z" fill="white"/>
<path d="M255.545 187.811C245.266 187.811 234.573 184.588 225.685 178.732C225.651 178.709 225.622 178.679 225.6 178.643C225.579 178.608 225.565 178.568 225.561 178.527C224.721 170.41 226.698 162.673 231.127 156.741C235.607 150.739 242.33 146.975 250.057 146.14C257.769 145.308 265.98 147.448 273.178 152.171C280.294 156.839 285.994 163.728 289.228 171.569C289.247 171.615 289.253 171.664 289.247 171.712C289.241 171.761 289.222 171.807 289.192 171.846C282.136 181.084 271.521 186.702 259.302 187.665C258.059 187.763 256.805 187.811 255.545 187.811ZM226.104 178.337C244.897 190.65 273.355 191.495 288.649 171.634C281.918 155.489 265.738 145.007 250.117 146.696C234.521 148.381 224.44 161.678 226.104 178.337Z" fill="#111111"/>
<path d="M355.72 229.158L351.486 212.586C350.346 208.125 346.027 204.871 341.842 205.324L192.539 221.458C188.355 221.91 185.899 225.895 187.039 230.357L191.273 246.929C192.413 251.391 196.716 254.632 200.899 254.18L350.202 238.046C354.387 237.594 356.86 233.621 355.719 229.158L355.72 229.158Z" fill="white"/>
<path d="M200.123 254.502C196.083 254.502 192.099 251.292 191.002 246.998L186.768 230.426C186.168 228.08 186.526 225.722 187.75 223.958C188.845 222.38 190.535 221.393 192.509 221.18L341.813 205.045C346.124 204.578 350.586 207.931 351.757 212.517L355.991 229.089C356.588 231.426 356.23 233.777 355.01 235.537C353.912 237.12 352.215 238.11 350.233 238.324L200.93 254.458C200.661 254.487 200.392 254.501 200.124 254.501L200.123 254.502ZM342.626 205.561C342.375 205.561 342.123 205.575 341.872 205.602L192.569 221.736C190.759 221.931 189.211 222.834 188.21 224.277C187.079 225.908 186.751 228.099 187.31 230.287L191.544 246.859C192.647 251.179 196.832 254.338 200.869 253.902L350.173 237.768C351.991 237.571 353.545 236.666 354.549 235.218C355.678 233.591 356.006 231.408 355.449 229.227L351.215 212.655C350.177 208.597 346.426 205.561 342.625 205.561L342.626 205.561Z" fill="#111111"/>
<path d="M353.925 252.617L204.622 268.751C200.438 269.203 197.982 273.189 199.122 277.65L203.356 294.222C204.496 298.685 208.802 301.939 212.986 301.487L362.289 285.353C366.473 284.901 368.943 280.914 367.803 276.452L363.569 259.88C362.429 255.418 358.11 252.165 353.926 252.617" fill="white"/>
<path d="M212.212 301.809C208.17 301.809 204.183 298.593 203.085 294.292L198.851 277.72C198.251 275.374 198.609 273.016 199.833 271.252C200.928 269.673 202.618 268.687 204.592 268.473L353.896 252.339C358.209 251.874 362.669 255.225 363.84 259.811L368.074 276.383C368.672 278.725 368.313 281.081 367.089 282.846C365.992 284.428 364.297 285.418 362.319 285.632L213.016 301.766C212.748 301.795 212.479 301.809 212.212 301.809ZM353.955 252.896L204.652 269.03C202.842 269.225 201.293 270.128 200.293 271.571C199.161 273.202 198.833 275.392 199.393 277.581L203.627 294.153C204.732 298.48 208.916 301.645 212.956 301.209L362.259 285.075C364.073 284.879 365.625 283.974 366.629 282.527C367.761 280.895 368.09 278.706 367.532 276.521L363.298 259.949C362.192 255.623 358.001 252.457 353.955 252.896Z" fill="#111111"/>
<path d="M371.685 322.13L222.382 338.264C218.198 338.717 215.741 342.701 216.882 347.164L221.115 363.735C222.255 368.197 226.558 371.439 230.742 370.987L380.046 354.853C384.23 354.401 386.703 350.427 385.563 345.965L381.329 329.393C380.188 324.931 375.87 321.678 371.685 322.13" fill="#3658C1"/>
<path d="M229.966 371.308C225.925 371.308 221.941 368.098 220.844 363.805L216.611 347.233C216.011 344.887 216.369 342.529 217.593 340.765C218.688 339.186 220.378 338.2 222.352 337.987L371.655 321.852C375.966 321.389 380.428 324.738 381.6 329.324L385.834 345.896C386.431 348.233 386.073 350.584 384.852 352.344C383.754 353.927 382.058 354.917 380.076 355.131L230.772 371.265C230.504 371.294 230.235 371.308 229.966 371.308ZM372.469 322.368C372.218 322.368 371.966 322.382 371.715 322.409L222.412 338.543C220.601 338.738 219.053 339.641 218.052 341.084C216.921 342.715 216.593 344.905 217.152 347.094L221.386 363.666C222.49 367.986 226.672 371.144 230.712 370.709L380.015 354.575C381.834 354.378 383.388 353.473 384.392 352.025C385.521 350.398 385.849 348.215 385.292 346.034L381.058 329.462C380.021 325.404 376.269 322.368 372.469 322.368Z" fill="#111111"/>
<path d="M197.343 229.61L201.394 245.468L219.142 243.55L215.091 227.692L197.343 229.61Z" fill="#B0C3FF"/>
<path d="M201.394 245.748C201.332 245.748 201.272 245.727 201.223 245.689C201.173 245.651 201.139 245.598 201.123 245.538L197.072 229.68C197.062 229.641 197.06 229.6 197.067 229.561C197.075 229.521 197.09 229.484 197.113 229.451C197.136 229.418 197.165 229.39 197.2 229.37C197.234 229.349 197.273 229.337 197.313 229.332L215.061 227.414C215.128 227.407 215.195 227.424 215.25 227.463C215.305 227.501 215.345 227.558 215.362 227.623L219.413 243.481C219.423 243.52 219.425 243.56 219.417 243.6C219.41 243.639 219.395 243.677 219.372 243.71C219.349 243.743 219.319 243.77 219.285 243.791C219.251 243.811 219.212 243.824 219.172 243.829L201.424 245.746C201.414 245.747 201.404 245.748 201.394 245.748ZM197.694 229.854L201.605 245.164L218.791 243.307L214.88 227.996L197.694 229.854Z" fill="#111111"/>
<path d="M208.242 236.86C208.189 236.86 208.136 236.845 208.092 236.816L197.192 229.846C197.129 229.806 197.085 229.743 197.069 229.671C197.053 229.598 197.067 229.522 197.107 229.46C197.146 229.397 197.21 229.353 197.282 229.337C197.355 229.321 197.43 229.334 197.493 229.374L208.177 236.206L214.869 227.522C214.891 227.491 214.919 227.466 214.951 227.447C214.983 227.428 215.018 227.415 215.055 227.41C215.092 227.404 215.13 227.407 215.166 227.416C215.202 227.426 215.236 227.442 215.265 227.465C215.295 227.488 215.32 227.516 215.338 227.549C215.356 227.581 215.368 227.617 215.373 227.654C215.377 227.691 215.374 227.729 215.363 227.765C215.353 227.801 215.335 227.834 215.312 227.863L208.464 236.751C208.437 236.785 208.404 236.812 208.366 236.831C208.327 236.85 208.285 236.86 208.242 236.86Z" fill="#111111"/>
<path d="M213.549 283.655L216.218 294.102L229.286 292.69L226.617 282.243L213.549 283.655Z" fill="#B0C3FF"/>
<path d="M216.218 294.382C216.156 294.382 216.095 294.361 216.046 294.323C215.997 294.285 215.962 294.232 215.947 294.172L213.278 283.724C213.268 283.686 213.266 283.645 213.273 283.606C213.281 283.566 213.296 283.529 213.319 283.496C213.342 283.463 213.371 283.435 213.406 283.415C213.44 283.394 213.479 283.381 213.519 283.377L226.586 281.965C226.722 281.951 226.853 282.039 226.887 282.174L229.556 292.621C229.566 292.66 229.568 292.7 229.561 292.74C229.554 292.779 229.538 292.816 229.515 292.849C229.492 292.882 229.463 292.91 229.428 292.931C229.394 292.951 229.355 292.964 229.316 292.968L216.248 294.38C216.238 294.382 216.228 294.382 216.218 294.382ZM213.9 283.898L216.429 293.798L228.935 292.447L226.406 282.547L213.9 283.898Z" fill="#111111"/>
<path d="M216.069 283.663C216.007 283.663 215.947 283.642 215.898 283.604C215.849 283.566 215.814 283.512 215.798 283.452L214.609 278.799C214.475 278.273 214.455 277.725 214.551 277.19C214.647 276.656 214.857 276.149 215.167 275.703C215.476 275.257 215.878 274.882 216.344 274.605C216.811 274.328 217.332 274.154 217.871 274.096C220.327 273.831 222.637 275.435 223.249 277.827L224.427 282.44C224.437 282.478 224.438 282.519 224.431 282.558C224.424 282.598 224.409 282.635 224.386 282.668C224.363 282.701 224.333 282.729 224.299 282.749C224.265 282.77 224.226 282.783 224.186 282.787L216.1 283.661C216.089 283.662 216.079 283.663 216.069 283.663ZM215.151 278.66L216.281 283.079L223.805 282.266L222.707 277.966C222.164 275.841 220.113 274.418 217.932 274.652C217.472 274.702 217.028 274.85 216.63 275.086C216.233 275.322 215.89 275.641 215.627 276.021C215.363 276.402 215.184 276.834 215.102 277.289C215.02 277.745 215.037 278.212 215.152 278.661L215.151 278.66Z" fill="#111111"/>
</g>
<g clip-path="url(#clip4_7_970)">
<path d="M399.484 112.426L407.484 118.909L383.504 127.006L375.503 120.523L399.484 112.426Z" fill="#3658C1"/>
<path d="M383.504 127.31C383.435 127.31 383.368 127.286 383.313 127.242L375.313 120.759C375.27 120.725 375.238 120.68 375.219 120.629C375.2 120.578 375.195 120.523 375.204 120.469C375.214 120.416 375.238 120.366 375.273 120.325C375.309 120.284 375.355 120.253 375.407 120.235L399.387 112.138C399.485 112.105 399.594 112.125 399.675 112.19L407.676 118.673C407.718 118.707 407.75 118.752 407.769 118.803C407.788 118.854 407.793 118.909 407.784 118.962C407.774 119.016 407.75 119.066 407.715 119.107C407.679 119.148 407.633 119.179 407.581 119.196L383.601 127.293C383.57 127.304 383.537 127.31 383.504 127.31ZM376.123 120.635L383.565 126.665L406.865 118.798L399.423 112.767L376.123 120.635Z" fill="#111111"/>
<path d="M485.982 29.1672L493.982 35.6501C507.685 46.7541 514.009 64.1319 508.981 82.6026C501.068 111.673 468.027 132.443 435.183 128.99C424.41 127.858 414.995 124.259 407.484 118.909L399.484 112.426C406.995 117.776 416.41 121.375 427.182 122.508C460.026 125.96 493.067 105.191 500.98 76.1197C506.008 57.649 499.684 40.2712 485.982 29.1672Z" fill="#3658C1"/>
<path d="M442.336 129.667C439.944 129.667 437.549 129.545 435.151 129.292C424.704 128.194 415.077 124.689 407.308 119.156L399.293 112.662C399.232 112.612 399.193 112.541 399.183 112.463C399.174 112.384 399.195 112.306 399.243 112.243C399.291 112.18 399.361 112.139 399.439 112.127C399.516 112.115 399.596 112.134 399.66 112.179C407.343 117.652 416.871 121.119 427.214 122.206C429.582 122.454 431.962 122.578 434.343 122.578C464.533 122.578 493.397 102.825 500.688 76.0403C505.514 58.3077 499.945 40.8732 485.79 29.4033C485.759 29.3783 485.732 29.3474 485.713 29.3123C485.694 29.2772 485.681 29.2385 485.677 29.1986C485.672 29.1587 485.676 29.1183 485.687 29.0798C485.699 29.0413 485.718 29.0054 485.743 28.9742C485.768 28.943 485.799 28.9172 485.835 28.8981C485.87 28.8791 485.909 28.8673 485.949 28.8634C485.989 28.8595 486.029 28.8635 486.068 28.8753C486.106 28.8871 486.142 28.9064 486.172 28.9321L494.173 35.4149C508.52 47.0411 514.165 64.7114 509.273 82.683C501.913 109.722 472.788 129.666 442.336 129.668L442.336 129.667ZM403.793 115.527L407.675 118.674C415.344 124.134 424.872 127.602 435.214 128.689C437.582 128.937 439.962 129.061 442.343 129.061C472.533 129.061 501.397 109.308 508.688 82.5231C513.515 64.7906 507.946 47.3563 493.79 35.8861L491.756 34.2371C501.911 45.5854 505.47 60.7817 501.273 76.1998C493.913 103.239 464.788 123.183 434.335 123.184C431.944 123.184 429.548 123.062 427.15 122.81C418.632 121.914 410.658 119.418 403.792 115.528L403.793 115.527Z" fill="#111111"/>
<path d="M455.839 17.2273C488.683 20.6795 508.894 47.046 500.98 76.1197C493.067 105.19 460.026 125.96 427.182 122.508C416.409 121.375 406.995 117.776 399.484 112.426L375.503 120.523L388.387 101.389C380.931 90.9125 378.243 77.5776 382.043 63.6179C389.957 34.5445 422.998 13.7752 455.839 17.2273Z" fill="white"/>
<path d="M434.336 123.184C431.944 123.184 429.549 123.061 427.151 122.809C416.761 121.717 407.181 118.244 399.435 112.763L375.601 120.811C375.541 120.831 375.476 120.832 375.415 120.813C375.355 120.795 375.301 120.758 375.263 120.707C375.224 120.657 375.203 120.596 375.201 120.532C375.199 120.469 375.217 120.406 375.252 120.354L388.019 101.393C380.308 90.4523 378.082 77.0181 381.751 63.5384C389.689 34.3745 422.941 13.4657 455.871 16.9254C472.64 18.6879 487.033 26.6787 495.361 38.8482C502.779 49.6886 504.879 62.9532 501.273 76.1992C493.913 103.238 464.788 123.184 434.336 123.184V123.184ZM399.484 112.123C399.546 112.123 399.608 112.142 399.66 112.179C407.344 117.652 416.871 121.119 427.214 122.206C459.864 125.639 492.825 104.928 500.688 76.0399C504.246 62.9686 502.176 49.8822 494.86 39.1911C486.633 27.1684 472.399 19.2729 455.808 17.5292C423.157 14.0971 390.199 34.8087 382.336 63.698C378.697 77.0691 380.934 90.3922 388.635 101.213C388.671 101.263 388.69 101.323 388.691 101.385C388.692 101.447 388.674 101.507 388.639 101.559L376.256 119.949L399.387 112.138C399.418 112.128 399.451 112.122 399.484 112.122V112.123Z" fill="#111111"/>
<path d="M473.281 48.4116C474.627 48.553 475.833 49.2211 476.61 50.3977C478.246 52.8762 477.35 56.6766 474.611 58.88L433.664 91.8674C432.232 93.0203 430.569 93.5142 429.074 93.3571C427.847 93.2281 426.731 92.6577 425.953 91.6568L411.221 72.7207C409.411 70.3927 410.07 66.5892 412.694 64.2238C414.186 62.8791 415.992 62.2896 417.606 62.4592C418.831 62.5879 419.945 63.1537 420.727 64.1586L432.386 79.1492L468.69 49.9028C470.129 48.7438 471.791 48.255 473.281 48.4116Z" fill="#B0C3FF"/>
<path d="M429.615 93.6887C429.423 93.6887 429.232 93.679 429.043 93.659C427.697 93.5173 426.515 92.8725 425.713 91.8434L410.982 72.9073C409.079 70.46 409.757 66.4636 412.491 63.9987C413.995 62.6431 415.868 61.972 417.638 62.1576C418.983 62.299 420.165 62.9435 420.966 63.9723L432.436 78.7193L468.5 49.6665C469.94 48.5071 471.694 47.9398 473.313 48.1097C474.804 48.2662 476.064 49.0196 476.864 50.2305C478.582 52.8337 477.657 56.8198 474.802 59.1163L433.854 92.1034C432.584 93.1268 431.067 93.6884 429.615 93.6884L429.615 93.6887ZM417.053 62.7344C415.613 62.7344 414.125 63.3433 412.898 64.4496C410.394 66.7063 409.75 70.3335 411.461 72.5347L426.193 91.4705C426.892 92.3683 427.926 92.9311 429.107 93.0555C430.569 93.2099 432.16 92.6899 433.474 91.631L474.422 58.6436C477.04 56.538 477.908 52.9141 476.358 50.5648C475.661 49.5084 474.557 48.8506 473.25 48.7132C471.791 48.5593 470.197 49.0794 468.881 50.1389L432.577 79.3856C432.546 79.4109 432.51 79.4296 432.471 79.4408C432.432 79.452 432.392 79.4553 432.352 79.4507C432.312 79.446 432.273 79.4334 432.238 79.4137C432.203 79.3939 432.172 79.3673 432.148 79.3355L420.488 64.3449C419.779 63.4347 418.772 62.887 417.575 62.7611C417.402 62.743 417.227 62.734 417.053 62.7341L417.053 62.7344Z" fill="#111111"/>
</g>
<g clip-path="url(#clip5_7_970)">
<path d="M474.809 330.049C473.628 328.999 472.218 328.493 470.82 328.497L463.677 328.522C465.075 328.518 466.485 329.024 467.666 330.074C468.901 331.171 469.672 332.676 469.948 334.278C470.286 336.239 469.884 338.345 468.681 340.028C468.211 340.685 467.658 341.225 467.052 341.642C466.044 342.337 464.89 342.694 463.729 342.698L470.872 342.673C472.033 342.669 473.188 342.311 474.195 341.617C474.801 341.2 475.354 340.66 475.824 340.003C477.026 338.32 477.43 336.214 477.091 334.253C476.815 332.651 476.043 331.146 474.809 330.049Z" fill="#3658C1"/>
<path d="M471.839 342.873C471.52 342.926 471.196 342.953 470.873 342.954L463.73 342.979C463.656 342.978 463.587 342.948 463.535 342.896C463.483 342.843 463.454 342.773 463.454 342.699C463.454 342.626 463.482 342.555 463.533 342.503C463.584 342.45 463.654 342.42 463.727 342.418L463.729 342.418C464.849 342.414 465.943 342.066 466.893 341.411C467.487 341.002 468.012 340.481 468.453 339.865C469.566 338.307 470.011 336.288 469.672 334.327C469.397 332.732 468.619 331.296 467.48 330.284C466.384 329.311 465.07 328.799 463.678 328.804C463.605 328.802 463.535 328.772 463.484 328.72C463.432 328.668 463.403 328.598 463.403 328.524C463.402 328.451 463.431 328.38 463.482 328.327C463.533 328.275 463.603 328.244 463.676 328.243L470.819 328.217C472.328 328.212 473.811 328.788 474.994 329.839C476.228 330.935 477.07 332.486 477.367 334.206C477.731 336.315 477.252 338.488 476.051 340.167C475.573 340.837 475.002 341.402 474.353 341.849C473.585 342.378 472.729 342.725 471.839 342.873ZM466.275 342.409L470.87 342.393C471.991 342.389 473.086 342.041 474.036 341.386C474.63 340.977 475.155 340.456 475.596 339.84C476.709 338.282 477.153 336.263 476.815 334.301C476.54 332.706 475.761 331.271 474.623 330.259C473.527 329.285 472.213 328.773 470.821 328.778L466.213 328.795C466.809 329.067 467.361 329.428 467.851 329.864C469.085 330.96 469.927 332.511 470.224 334.231C470.588 336.34 470.108 338.513 468.908 340.192C468.43 340.862 467.858 341.427 467.21 341.874C466.914 342.078 466.601 342.257 466.275 342.409Z" fill="#111111"/>
<path d="M463.097 373.788L455.954 373.813C453.225 373.823 450.485 373.325 447.855 372.303L454.998 372.278C457.627 373.3 460.368 373.798 463.097 373.788Z" fill="#3658C1"/>
<path d="M463.144 374.065C463.129 374.068 463.114 374.069 463.099 374.069L455.956 374.094C453.151 374.104 450.391 373.589 447.754 372.565C447.693 372.541 447.642 372.497 447.61 372.44C447.579 372.383 447.568 372.317 447.579 372.252C447.591 372.188 447.625 372.13 447.675 372.088C447.725 372.046 447.788 372.023 447.853 372.023L454.996 371.998C455.032 371.998 455.066 372.004 455.099 372.017C457.671 373.016 460.361 373.517 463.096 373.508C463.166 373.507 463.235 373.533 463.287 373.581C463.339 373.628 463.372 373.694 463.378 373.764C463.384 373.835 463.363 373.905 463.32 373.961C463.276 374.016 463.213 374.054 463.144 374.065ZM449.503 372.578C451.593 373.219 453.768 373.541 455.953 373.533L458.123 373.525C457.042 373.281 455.98 372.958 454.946 372.559L449.503 372.578Z" fill="#111111"/>
<path d="M439.897 364.376L432.754 364.401L435.167 361.025L442.31 361L439.897 364.376Z" fill="white"/>
<path d="M439.943 364.652C439.928 364.655 439.913 364.656 439.898 364.656L432.755 364.681C432.704 364.681 432.653 364.667 432.609 364.64C432.565 364.614 432.529 364.575 432.505 364.529C432.482 364.483 432.471 364.432 432.475 364.38C432.479 364.329 432.496 364.279 432.526 364.237L434.939 360.861C434.965 360.825 434.999 360.795 435.038 360.775C435.078 360.755 435.122 360.744 435.166 360.744L442.309 360.719C442.36 360.719 442.411 360.733 442.455 360.76C442.499 360.786 442.535 360.825 442.559 360.871C442.582 360.917 442.593 360.968 442.589 361.02C442.585 361.071 442.568 361.121 442.538 361.163L440.125 364.539C440.103 364.569 440.076 364.594 440.045 364.614C440.014 364.633 439.979 364.646 439.943 364.652ZM433.3 364.118L439.752 364.096L441.763 361.282L435.311 361.305L433.3 364.118Z" fill="#111111"/>
<path d="M439.765 370.065L432.622 370.09L432.754 364.401L439.897 364.376L439.765 370.065Z" fill="#3658C1"/>
<path d="M439.811 370.342C439.796 370.344 439.781 370.345 439.766 370.345L432.623 370.371C432.586 370.371 432.548 370.363 432.514 370.349C432.479 370.335 432.448 370.313 432.422 370.287C432.396 370.26 432.375 370.228 432.361 370.193C432.347 370.158 432.341 370.121 432.342 370.084L432.474 364.394C432.476 364.321 432.506 364.252 432.558 364.201C432.61 364.15 432.68 364.121 432.753 364.12L439.895 364.095C439.933 364.095 439.97 364.102 440.005 364.117C440.039 364.131 440.07 364.152 440.097 364.179C440.123 364.206 440.144 364.238 440.157 364.273C440.171 364.308 440.178 364.345 440.177 364.382L440.045 370.072C440.043 370.137 440.019 370.2 439.976 370.249C439.934 370.298 439.875 370.331 439.811 370.342ZM432.908 369.808L439.491 369.785L439.61 364.657L433.027 364.68L432.908 369.808Z" fill="#111111"/>
<path d="M455.761 319.371C451.296 319.387 446.862 320.761 442.993 323.426C440.669 325.028 438.549 327.095 436.749 329.614C432.13 336.077 430.582 344.169 431.881 351.703C432.445 354.975 433.547 358.142 435.167 361.025L442.31 361C440.69 358.117 439.588 354.95 439.024 351.678C437.725 344.144 439.273 336.052 443.892 329.589C445.692 327.07 447.812 325.003 450.136 323.401C454.005 320.736 458.439 319.362 462.904 319.346L455.761 319.371Z" fill="white"/>
<path d="M442.356 361.276C442.341 361.279 442.326 361.28 442.311 361.28L435.168 361.305C435.118 361.305 435.069 361.292 435.026 361.267C434.983 361.242 434.948 361.206 434.923 361.162C433.301 358.276 432.184 355.109 431.605 351.75C430.244 343.855 432.035 335.727 436.521 329.45C438.302 326.959 440.426 324.855 442.835 323.195C446.709 320.526 451.178 319.106 455.76 319.09L462.903 319.065C462.976 319.067 463.046 319.096 463.098 319.149C463.149 319.201 463.178 319.271 463.179 319.345C463.179 319.418 463.151 319.489 463.099 319.542C463.048 319.594 462.979 319.625 462.905 319.626C458.437 319.642 454.076 321.027 450.295 323.632C447.94 325.255 445.862 327.314 444.12 329.752C439.721 335.908 437.964 343.882 439.3 351.63C439.869 354.926 440.963 358.032 442.554 360.862C442.576 360.901 442.589 360.945 442.59 360.991C442.592 361.036 442.582 361.08 442.563 361.121C442.543 361.162 442.514 361.197 442.478 361.224C442.442 361.251 442.4 361.269 442.356 361.276ZM435.331 360.744L441.837 360.721C440.338 357.947 439.3 354.923 438.748 351.725C437.386 343.83 439.178 335.702 443.664 329.425C445.444 326.934 447.569 324.83 449.977 323.17C452.428 321.482 455.117 320.293 457.921 319.644L455.762 319.652C451.294 319.667 446.933 321.052 443.152 323.658C440.797 325.281 438.719 327.339 436.977 329.777C432.577 335.933 430.821 343.907 432.157 351.655C432.716 354.895 433.783 357.952 435.331 360.744Z" fill="#111111"/>
<path d="M435.432 370.623L428.289 370.648L432.622 370.09L439.765 370.065L435.432 370.623Z" fill="#3658C1"/>
<path d="M439.811 370.342L439.801 370.343L435.468 370.901C435.456 370.903 435.445 370.904 435.433 370.904L428.29 370.929C428.142 370.929 428.019 370.814 428.01 370.667C428 370.519 428.105 370.388 428.253 370.37L432.586 369.812C432.598 369.81 432.609 369.81 432.621 369.809L439.764 369.784C439.834 369.784 439.902 369.811 439.954 369.858C440.006 369.906 440.038 369.971 440.044 370.041C440.05 370.112 440.029 370.181 439.986 370.237C439.943 370.293 439.88 370.33 439.811 370.342Z" fill="#111111"/>
<path d="M429.434 379.016L422.291 379.041L428.289 370.648L435.432 370.623L429.434 379.016Z" fill="white"/>
<path d="M429.48 379.293C429.465 379.295 429.45 379.296 429.435 379.296L422.292 379.321C422.241 379.321 422.19 379.307 422.146 379.281C422.102 379.254 422.066 379.215 422.042 379.169C422.019 379.124 422.008 379.072 422.012 379.02C422.016 378.969 422.033 378.919 422.063 378.877L428.062 370.485C428.088 370.448 428.122 370.419 428.161 370.399C428.2 370.378 428.244 370.367 428.288 370.367L435.431 370.342C435.483 370.342 435.533 370.356 435.578 370.383C435.622 370.41 435.657 370.448 435.681 370.494C435.705 370.54 435.715 370.592 435.712 370.643C435.708 370.695 435.69 370.744 435.66 370.786L429.662 379.179C429.619 379.24 429.553 379.28 429.48 379.293ZM422.837 378.758L429.289 378.736L434.886 370.906L428.434 370.928L422.837 378.758Z" fill="#111111"/>
<path d="M428.131 386.92L420.989 386.945L422.29 379.041L429.434 379.016L428.131 386.92Z" fill="#3658C1"/>
<path d="M428.178 387.197C428.163 387.199 428.148 387.201 428.133 387.201L420.99 387.226C420.949 387.226 420.909 387.217 420.872 387.2C420.835 387.183 420.802 387.158 420.776 387.127C420.749 387.096 420.73 387.059 420.719 387.02C420.708 386.981 420.706 386.94 420.712 386.899L422.015 378.995C422.025 378.93 422.059 378.87 422.109 378.827C422.16 378.784 422.223 378.761 422.29 378.761L429.433 378.735C429.473 378.735 429.513 378.744 429.55 378.761C429.587 378.778 429.62 378.803 429.647 378.834C429.673 378.865 429.692 378.902 429.703 378.941C429.714 378.98 429.717 379.021 429.71 379.062L428.408 386.966C428.388 387.086 428.294 387.178 428.178 387.197ZM421.319 386.664L427.894 386.64L429.103 379.298L422.528 379.321L421.319 386.664Z" fill="#111111"/>
<path d="M421.923 389.526L414.78 389.551L420.989 386.945L428.132 386.92L421.923 389.526Z" fill="#3658C1"/>
<path d="M421.968 389.802C421.954 389.805 421.939 389.806 421.924 389.806L414.781 389.831C414.716 389.831 414.653 389.809 414.603 389.768C414.553 389.727 414.518 389.67 414.505 389.606C414.492 389.543 414.502 389.477 414.532 389.419C414.562 389.362 414.611 389.317 414.671 389.292L420.88 386.686C420.914 386.672 420.95 386.665 420.987 386.665L428.13 386.64C428.195 386.639 428.258 386.662 428.308 386.703C428.358 386.744 428.393 386.801 428.406 386.864C428.419 386.928 428.409 386.994 428.379 387.051C428.349 387.109 428.299 387.154 428.24 387.179L422.031 389.784C422.011 389.793 421.99 389.799 421.968 389.802ZM416.185 389.265L421.865 389.245L426.726 387.205L421.045 387.225L416.185 389.265Z" fill="#111111"/>
<path d="M416.151 404.273L409.008 404.298L408.728 398.018L415.871 397.993L416.151 404.273Z" fill="#3658C1"/>
<path d="M416.197 404.55C416.182 404.552 416.167 404.554 416.152 404.554L409.009 404.579C408.937 404.579 408.867 404.551 408.815 404.501C408.762 404.451 408.731 404.383 408.728 404.31L408.448 398.03C408.447 397.992 408.453 397.955 408.466 397.919C408.479 397.884 408.5 397.851 408.526 397.824C408.552 397.797 408.583 397.775 408.618 397.76C408.652 397.745 408.69 397.737 408.727 397.737L415.87 397.712C415.942 397.712 416.012 397.74 416.064 397.79C416.117 397.84 416.148 397.908 416.151 397.98L416.431 404.261C416.434 404.329 416.412 404.396 416.368 404.45C416.325 404.503 416.264 404.539 416.197 404.55ZM409.276 404.017L415.858 403.994L415.603 398.275L409.021 398.298L409.276 404.017Z" fill="#111111"/>
<path d="M415.871 397.993L408.728 398.018L414.78 389.551L421.923 389.526L415.871 397.993Z" fill="white"/>
<path d="M415.917 398.27C415.902 398.272 415.887 398.273 415.872 398.273L408.729 398.299C408.678 398.299 408.627 398.285 408.583 398.258C408.539 398.231 408.503 398.192 408.479 398.147C408.456 398.101 408.445 398.049 408.449 397.998C408.452 397.946 408.47 397.897 408.5 397.855L414.552 389.387C414.578 389.351 414.612 389.321 414.651 389.301C414.69 389.281 414.734 389.27 414.779 389.27L421.921 389.245C421.973 389.245 422.024 389.259 422.068 389.286C422.112 389.312 422.148 389.351 422.171 389.397C422.195 389.443 422.205 389.494 422.202 389.546C422.198 389.597 422.18 389.647 422.15 389.689L416.099 398.156C416.055 398.217 415.99 398.257 415.917 398.27ZM409.274 397.735L415.726 397.713L421.376 389.808L414.924 389.83L409.274 397.735Z" fill="#111111"/>
<path d="M410.697 405.233L403.554 405.258L409.008 404.298L416.15 404.273L410.697 405.233Z" fill="#3658C1"/>
<path d="M410.743 405.509C410.728 405.512 410.713 405.513 410.698 405.513L403.555 405.538C403.484 405.539 403.416 405.514 403.363 405.466C403.311 405.419 403.278 405.353 403.272 405.283C403.266 405.212 403.286 405.142 403.329 405.086C403.373 405.03 403.436 404.993 403.505 404.981L408.959 404.022C408.974 404.019 408.99 404.018 409.006 404.018L416.149 403.993C416.22 403.991 416.288 404.017 416.341 404.065C416.393 404.112 416.426 404.177 416.432 404.248C416.439 404.318 416.418 404.389 416.375 404.445C416.332 404.501 416.269 404.538 416.199 404.549L410.745 405.509L410.743 405.509ZM406.833 404.966L410.672 404.952L412.872 404.565L409.033 404.579L406.833 404.966Z" fill="#111111"/>
<path d="M408.036 408.956L400.893 408.981L403.554 405.258L410.697 405.233L408.036 408.956Z" fill="white"/>
<path d="M408.082 409.233C408.067 409.235 408.052 409.236 408.037 409.236L400.894 409.261C400.843 409.262 400.792 409.247 400.748 409.221C400.704 409.194 400.668 409.155 400.645 409.109C400.621 409.064 400.61 409.012 400.614 408.961C400.618 408.909 400.636 408.86 400.666 408.818L403.326 405.094C403.352 405.058 403.386 405.029 403.426 405.008C403.465 404.988 403.509 404.977 403.553 404.977L410.696 404.952C410.747 404.952 410.798 404.966 410.842 404.993C410.886 405.02 410.922 405.058 410.946 405.104C410.969 405.15 410.98 405.201 410.976 405.253C410.973 405.304 410.955 405.354 410.925 405.396L408.264 409.119C408.221 409.18 408.155 409.22 408.082 409.233ZM401.439 408.698L407.892 408.676L410.15 405.515L403.698 405.538L401.439 408.698Z" fill="#111111"/>
<path d="M400.949 423.426L400.89 408.985L408.033 408.961L408.091 423.401L400.949 423.426Z" fill="white"/>
<path d="M408.14 423.674C408.125 423.676 408.11 423.677 408.095 423.677L400.952 423.702C400.915 423.703 400.879 423.696 400.845 423.682C400.811 423.668 400.78 423.647 400.754 423.621C400.727 423.595 400.707 423.564 400.693 423.53C400.678 423.496 400.671 423.46 400.671 423.423L400.613 408.982C400.613 408.907 400.642 408.836 400.694 408.783C400.747 408.73 400.818 408.701 400.892 408.7L408.035 408.675C408.072 408.675 408.108 408.682 408.142 408.696C408.176 408.71 408.207 408.731 408.233 408.757C408.26 408.783 408.28 408.813 408.294 408.847C408.309 408.881 408.316 408.918 408.316 408.955L408.374 423.396C408.374 423.462 408.351 423.527 408.308 423.578C408.265 423.629 408.206 423.663 408.14 423.674ZM401.23 423.14L407.813 423.117L407.757 409.237L401.174 409.26L401.23 423.14Z" fill="#111111"/>
<path d="M418.405 423.48L411.262 423.505L400.951 423.422L408.094 423.397L418.405 423.48Z" fill="white"/>
<path d="M418.451 423.757C418.436 423.759 418.421 423.761 418.406 423.761L411.263 423.786L400.949 423.702C400.874 423.702 400.803 423.673 400.751 423.62C400.698 423.567 400.669 423.496 400.669 423.421C400.669 423.347 400.699 423.275 400.751 423.223C400.804 423.17 400.875 423.141 400.95 423.141L408.093 423.116L418.407 423.199C418.477 423.2 418.545 423.226 418.596 423.274C418.648 423.322 418.68 423.388 418.685 423.458C418.691 423.528 418.67 423.598 418.626 423.653C418.583 423.709 418.52 423.746 418.451 423.757Z" fill="#111111"/>
<path d="M478.207 325.293C467.656 315.916 452.293 317.834 443.892 329.589C437.266 338.86 436.959 351.481 442.309 361L439.897 364.376L439.765 370.065L435.432 370.623L429.434 379.016L428.131 386.92L421.923 389.526L415.871 397.993L416.151 404.273L410.697 405.233L408.036 408.956L408.094 423.397L418.405 423.48L454.998 372.279C464.513 375.974 475.477 372.822 482.105 363.549C490.505 351.793 488.759 334.67 478.207 325.293ZM475.824 340.003C473.634 343.066 469.637 343.567 466.891 341.126C464.14 338.681 463.686 334.225 465.875 331.162C468.06 328.104 472.057 327.604 474.808 330.049C477.554 332.489 478.009 336.945 475.824 340.003Z" fill="#B0C3FF"/>
<path d="M418.45 423.757C418.434 423.759 418.418 423.76 418.402 423.76L408.092 423.677C408.018 423.676 407.947 423.647 407.895 423.594C407.843 423.542 407.814 423.471 407.814 423.398L407.755 408.956C407.755 408.897 407.774 408.84 407.808 408.792L410.469 405.069C410.511 405.009 410.576 404.969 410.648 404.956L415.86 404.039L415.591 398.005C415.588 397.942 415.606 397.88 415.643 397.829L421.695 389.362C421.725 389.32 421.766 389.287 421.814 389.266L427.88 386.721L429.157 378.97C429.164 378.927 429.181 378.887 429.206 378.852L435.204 370.459C435.226 370.428 435.255 370.402 435.288 370.382C435.321 370.362 435.358 370.349 435.396 370.344L439.49 369.817L439.616 364.369C439.618 364.312 439.636 364.258 439.669 364.212L441.978 360.98C436.525 351.134 437.195 338.476 443.664 329.425C447.839 323.583 453.815 319.954 460.49 319.204C466.953 318.479 473.311 320.567 478.393 325.083C489.031 334.537 490.797 351.865 482.331 363.711C475.857 372.77 464.938 376.332 455.099 372.617L418.632 423.643C418.589 423.704 418.524 423.744 418.45 423.757ZM408.372 423.119L418.261 423.198L454.769 372.115C454.806 372.065 454.858 372.027 454.917 372.01C454.977 371.992 455.04 371.994 455.098 372.017C458.856 373.476 462.785 373.84 466.555 373.215C472.465 372.236 477.988 368.824 481.876 363.385C490.18 351.766 488.451 334.772 478.021 325.503C473.06 321.094 466.856 319.055 460.553 319.762C454.036 320.494 448.201 324.041 444.119 329.752C437.74 338.678 437.111 351.18 442.554 360.862C442.58 360.909 442.592 360.962 442.589 361.015C442.586 361.068 442.568 361.12 442.537 361.163L440.175 364.469L440.045 370.072C440.043 370.139 440.018 370.203 439.973 370.253C439.928 370.303 439.867 370.335 439.801 370.343L435.589 370.886L429.699 379.126L428.408 386.966C428.4 387.013 428.381 387.057 428.351 387.094C428.322 387.131 428.284 387.161 428.24 387.179L422.104 389.754L416.155 398.077L416.43 404.261C416.433 404.329 416.412 404.396 416.369 404.449C416.327 404.502 416.266 404.538 416.199 404.549L410.858 405.489L408.316 409.045L408.372 423.119ZM471.844 342.872C471.737 342.889 471.63 342.904 471.522 342.916C469.782 343.112 468.072 342.55 466.706 341.336C463.857 338.805 463.382 334.167 465.647 330.998C466.768 329.431 468.373 328.456 470.169 328.254C471.911 328.059 473.624 328.622 474.994 329.839C477.84 332.368 478.314 337 476.051 340.166C474.995 341.644 473.511 342.595 471.844 342.872ZM469.94 328.853C468.422 329.104 467.068 329.974 466.103 331.325C464 334.267 464.437 338.57 467.077 340.917C468.323 342.024 469.88 342.536 471.46 342.359C473.097 342.176 474.566 341.28 475.596 339.84C477.697 336.901 477.26 332.602 474.623 330.259C473.373 329.148 471.814 328.635 470.232 328.812C470.134 328.823 470.037 328.837 469.94 328.853Z" fill="#111111"/>
</g>
</g>
<defs>
<linearGradient id="paint0_linear_7_970" x1="59.0399" y1="334.196" x2="109.248" y2="466.327" gradientUnits="userSpaceOnUse">
<stop offset="0.576" stop-color="#3658C1"/>
<stop offset="1" stop-color="#111111"/>
</linearGradient>
<linearGradient id="paint1_linear_7_970" x1="176.101" y1="38.6014" x2="322.83" y2="474.632" gradientUnits="userSpaceOnUse">
<stop stop-color="#111111"/>
<stop offset="0.31" stop-color="#3658C1"/>
<stop offset="0.761" stop-color="#3658C1"/>
<stop offset="1" stop-color="#111111"/>
</linearGradient>
<clipPath id="clip0_7_970">
<rect width="511" height="494" fill="white"/>
</clipPath>
<clipPath id="clip1_7_970">
<rect width="187.6" height="201.6" fill="white" transform="translate(0 245.029)"/>
</clipPath>
<clipPath id="clip2_7_970">
<rect width="355.6" height="481.88" fill="white" transform="translate(98.0518) rotate(1.85491)"/>
</clipPath>
<clipPath id="clip3_7_970">
<rect width="199.64" height="289.52" fill="white" transform="translate(186.48 81.7889)"/>
</clipPath>
<clipPath id="clip4_7_970">
<rect width="135.8" height="113.12" fill="white" transform="translate(375.2 16.5489)"/>
</clipPath>
<clipPath id="clip5_7_970">
<rect width="98.84" height="97.44" fill="white" transform="translate(385.255 330.491) rotate(-9.4165)"/>
</clipPath>
</defs>
</svg>
