<svg width="44" height="44" viewBox="0 0 44 44" fill="none" xmlns="http://www.w3.org/2000/svg">
<rect width="44" height="44" rx="22" fill="#EDC073"/>
<path d="M20.0444 7.33334C19.4147 7.33334 18.9037 7.8444 18.9037 8.47408C18.9037 9.10377 19.4147 9.61483 20.0444 9.61483H21.1852V10.809C14.7899 11.3856 9.77777 16.7584 9.77777 23.3037C9.77777 30.2337 15.3959 35.8519 22.3259 35.8519C29.2559 35.8519 34.8741 30.2337 34.8741 23.3037C34.8741 20.2494 33.7816 17.4511 31.9676 15.2751L32.8288 14.414C33.2742 13.9685 33.2742 13.2463 32.8288 12.8009C32.3833 12.3554 31.6611 12.3554 31.2157 12.8009L30.3546 13.662C28.4526 12.0765 26.0751 11.0442 23.4667 10.809V9.61483H24.6074C25.2371 9.61483 25.7481 9.10377 25.7481 8.47408C25.7481 7.8444 25.2371 7.33334 24.6074 7.33334H20.0444ZM16.6222 16.4593C16.9141 16.4593 17.206 16.5707 17.4288 16.7935L22.2368 21.6015C23.2709 21.5479 24.084 22.3816 24.0281 23.3928L24.7455 24.1103C25.191 24.5557 25.191 25.2779 24.7455 25.7233C24.5231 25.9458 24.231 26.0575 23.939 26.0575C23.647 26.0575 23.3555 25.9463 23.1325 25.7233L22.415 25.0059C21.3941 25.059 20.5712 24.2424 20.6237 23.2146L15.8157 18.4065C15.3702 17.9611 15.3702 17.2389 15.8157 16.7935C16.0384 16.5707 16.3303 16.4593 16.6222 16.4593Z" fill="white"/>
</svg>
